<?xml version="1.0" standalone="no"?>
<!DOCTYPE svg PUBLIC "-//W3C//DTD SVG 20010904//EN"
 "http://www.w3.org/TR/2001/REC-SVG-20010904/DTD/svg10.dtd">
<svg version="1.0" xmlns="http://www.w3.org/2000/svg"
 width="1300.000000pt" height="956.000000pt" viewBox="0 0 1300.000000 956.000000"
 preserveAspectRatio="xMidYMid meet">

<g transform="translate(0.000000,956.000000) scale(0.100000,-0.100000)"
fill="#000000" stroke="none">
<path d="M8632 8731 c-15 -16 -34 -31 -42 -35 -8 -3 -3 -4 13 -1 16 3 27 1 27
-6 0 -7 11 -8 33 -4 41 9 55 21 40 36 -6 6 -9 18 -6 25 10 26 -37 15 -65 -15z"/>
<path d="M8566 8661 c-12 -5 -15 -10 -9 -14 6 -4 16 0 23 8 14 17 13 17 -14 6z"/>
<path d="M5398 8385 c-3 -3 -57 -10 -119 -15 -141 -11 -218 -33 -334 -95 -96
-51 -117 -65 -97 -65 18 0 -16 -36 -70 -75 -68 -49 -88 -68 -88 -82 0 -6 -6
-16 -12 -20 -25 -16 -75 -89 -88 -128 -7 -22 -16 -44 -20 -50 -13 -18 -29 -78
-34 -133 -3 -29 -10 -61 -14 -70 -10 -20 -7 -79 8 -147 15 -71 20 -86 30 -80
4 3 8 -1 7 -8 0 -6 1 -25 2 -42 2 -26 3 -27 11 -10 7 16 9 17 9 3 1 -28 17
-28 19 -1 5 58 12 32 14 -48 1 -46 3 -65 5 -41 2 23 9 42 14 42 6 0 7 -14 3
-35 -5 -27 -2 -41 12 -56 10 -12 19 -28 19 -37 0 -10 10 -18 23 -20 12 -2 27
-12 32 -23 10 -18 6 -23 -14 -20 -5 1 -6 -10 -4 -24 6 -29 7 -28 -26 -15 -21
8 -25 6 -28 -12 -2 -12 -10 -24 -18 -29 -8 -4 -35 -17 -60 -29 -43 -21 -87
-58 -83 -71 1 -3 -27 -16 -62 -30 -35 -13 -61 -27 -59 -31 3 -5 -6 -8 -21 -8
-25 0 -64 -15 -113 -44 -38 -22 -76 -103 -75 -161 2 -59 40 -201 90 -332 40
-104 36 -102 146 -84 26 4 47 6 47 4 0 -2 16 -91 35 -197 40 -219 41 -230 21
-223 -8 3 -35 -1 -62 -9 -26 -8 -70 -13 -98 -13 -28 1 -42 4 -31 6 11 3 32 16
47 28 l27 23 -42 6 c-142 23 -274 27 -1032 32 -462 3 -866 6 -898 8 -246 11
-366 -41 -433 -188 -25 -55 -26 -65 -20 -150 8 -117 35 -277 49 -294 5 -7 17
-10 26 -7 17 6 -3 -12 -99 -90 -98 -78 -208 -201 -279 -310 -79 -122 -192
-342 -250 -490 -25 -60 -48 -114 -52 -120 -4 -5 -19 -46 -34 -90 -15 -44 -31
-84 -35 -90 -4 -5 -15 -35 -24 -65 -10 -30 -31 -85 -47 -122 -16 -36 -29 -78
-29 -92 0 -22 4 -26 30 -26 18 0 30 -5 30 -13 0 -7 -20 -70 -44 -139 -76 -220
-91 -315 -91 -588 1 -258 9 -312 77 -525 82 -258 272 -541 472 -704 315 -257
684 -383 1076 -367 208 8 277 20 490 88 234 73 565 274 719 436 186 196 389
483 468 662 38 85 93 263 93 299 0 11 -18 12 -97 7 -54 -4 -117 -11 -140 -15
-24 -5 -43 -7 -43 -4 0 11 63 25 154 34 55 5 115 12 131 15 55 10 118 18 217
28 143 15 338 45 352 53 5 4 36 8 69 10 33 2 79 10 103 18 25 8 54 15 64 15
24 0 105 36 139 62 13 10 20 18 16 18 -4 0 -3 6 3 13 9 10 4 12 -23 9 -22 -3
-35 0 -35 7 0 6 9 11 20 11 30 0 88 33 99 57 5 12 23 24 40 28 17 4 37 12 44
18 6 7 34 23 60 36 27 14 53 33 58 43 5 10 14 18 20 18 10 0 92 53 115 75 6 5
33 28 60 50 212 176 479 429 969 920 534 533 696 704 774 815 68 96 80 120
101 189 14 45 27 71 36 71 8 0 16 -6 18 -12 2 -7 13 -45 26 -84 17 -51 22 -84
18 -122 -5 -52 -5 -52 24 -52 34 0 35 0 47 -121 9 -84 43 -274 57 -321 6 -20
-1 -24 -126 -63 -396 -126 -729 -472 -876 -911 -117 -350 -107 -721 32 -1112
92 -262 229 -478 428 -678 157 -156 209 -196 353 -268 246 -122 426 -183 615
-206 260 -31 583 42 913 207 72 36 275 244 354 362 92 138 119 197 113 248 -4
37 -2 42 19 45 38 5 34 32 -6 47 l-35 12 0 165 0 164 40 0 40 0 0 -140 c0
-113 3 -140 14 -140 20 0 26 33 26 163 l0 117 29 0 c29 0 29 0 38 78 12 115 7
324 -11 432 -62 382 -283 775 -592 1052 -159 143 -399 281 -604 347 -104 34
-286 75 -299 67 -5 -3 -7 -18 -5 -33 7 -53 -6 -7 -56 194 -53 214 -84 304
-136 393 -58 99 -105 130 -198 130 l-53 0 -36 103 c-107 305 -150 440 -195
607 -175 651 -298 1080 -310 1080 -31 0 -29 -10 104 -469 11 -36 13 -56 5 -64
-7 -7 -12 -1 -17 19 -3 16 -12 49 -19 74 -15 50 -29 99 -77 279 -41 154 -46
162 -83 133 -15 -12 -34 -22 -41 -22 -8 0 -14 -4 -14 -8 0 -11 88 -334 195
-712 94 -335 103 -374 86 -384 -6 -4 -30 8 -54 27 -57 47 -79 57 -144 67 -70
12 -140 -2 -213 -42 -45 -26 -221 -160 -306 -234 -12 -11 -159 -138 -328 -284
l-306 -265 0 -59 c0 -52 2 -57 15 -46 12 10 13 15 4 21 -20 12 -1 76 29 100
22 17 37 20 80 17 44 -4 56 -1 77 18 51 47 95 75 106 69 11 -7 1 -18 -80 -87
-28 -24 -31 -31 -26 -62 10 -51 35 -36 35 21 l0 45 43 -3 c48 -3 46 -5 178
110 41 35 101 87 133 115 33 28 64 56 70 62 12 11 155 129 266 219 117 94 205
120 250 75 48 -48 133 -255 154 -375 15 -84 15 -84 -19 -160 -46 -103 -231
-302 -900 -970 -541 -540 -901 -870 -937 -859 -9 3 -33 2 -52 -1 -37 -7 -40
-29 -5 -40 35 -11 20 -43 -16 -35 -38 8 -85 -4 -185 -45 -161 -66 -153 -61
-134 -90 11 -17 29 -26 61 -31 42 -6 47 -16 13 -27 -8 -2 -3 -3 12 -1 14 2 32
-3 38 -11 7 -8 11 -15 9 -16 -2 0 -21 -2 -42 -3 -27 -1 -38 3 -42 15 -3 9 -18
20 -33 24 -84 20 -102 27 -102 40 0 8 17 23 38 34 l37 19 -28 7 c-15 4 -47 29
-70 55 -66 74 -79 119 -203 705 -36 171 -72 346 -80 390 -8 44 -17 87 -20 96
-6 23 2 25 231 69 325 63 627 127 706 151 76 22 218 86 254 113 19 15 19 15
-12 16 -17 0 -35 5 -38 10 -4 7 -14 5 -28 -5 -12 -8 -31 -15 -42 -15 -11 0
-54 -11 -96 -25 -68 -21 -248 -61 -289 -63 -8 -1 -42 -8 -75 -16 -141 -35
-207 -47 -221 -42 -8 3 -14 1 -14 -4 0 -6 -10 -8 -22 -6 -13 1 -37 -3 -55 -11
-26 -10 -37 -11 -52 -1 -15 9 -22 8 -35 -4 -18 -19 -43 -25 -138 -36 -51 -6
-68 -5 -68 4 0 12 126 48 151 43 8 -2 49 5 92 15 43 10 83 15 90 13 6 -2 28 3
47 13 19 10 89 27 155 39 144 27 227 44 360 78 55 14 106 25 113 26 10 0 11
11 6 41 -3 23 -7 42 -8 43 0 0 -35 -10 -76 -24 -115 -39 -965 -211 -978 -198
-2 2 -32 146 -67 320 -34 173 -64 318 -68 321 -6 6 -39 -51 -33 -57 2 -2 6
-16 10 -31 5 -21 3 -28 -9 -28 -9 0 -14 8 -12 19 4 38 -17 25 -49 -29 -60
-102 -60 -105 -20 -295 47 -228 51 -251 36 -260 -6 -4 -17 -2 -23 4 -22 22
-26 9 -22 -68 6 -109 12 -131 39 -131 54 0 63 -9 75 -73 7 -34 16 -80 21 -102
5 -22 26 -121 45 -220 20 -99 47 -232 61 -295 13 -63 24 -119 24 -125 0 -5 8
4 18 20 10 17 31 36 45 44 29 15 37 51 12 51 -8 0 -15 -7 -15 -15 0 -9 -9 -15
-25 -15 -55 0 -14 74 47 82 48 7 63 -26 63 -141 0 -86 -2 -96 -19 -99 -10 -2
-22 2 -27 9 -6 10 -10 10 -23 0 -9 -7 -22 -11 -31 -8 -24 10 -24 -5 0 -100 50
-197 75 -253 148 -330 27 -29 48 -56 45 -58 -6 -6 -57 -11 -199 -20 l-96 -6
-6 213 c-5 198 -8 226 -45 403 -43 203 -83 335 -131 437 -36 76 -87 153 -93
141 -3 -4 -3 -2 -1 6 6 23 -159 221 -202 242 -20 10 -20 10 -1 -5 11 -9 15
-16 9 -16 -5 0 -18 10 -29 22 -10 12 -13 18 -6 14 6 -4 12 -3 12 2 0 16 -70
73 -81 66 -19 -11 21 55 74 126 105 139 247 361 247 385 0 21 70 156 94 183
33 35 181 233 196 262 13 24 9 31 -67 108 -46 47 -78 54 -87 20 -3 -15 -9 -19
-15 -13 -9 9 -57 238 -75 360 -4 22 -9 54 -12 70 -3 18 -2 25 3 18 7 -10 28
-5 89 21 145 63 189 87 173 97 -9 6 -10 9 -2 9 7 0 20 15 29 33 9 17 23 36 31
40 19 11 7 27 -21 27 -20 0 -23 4 -18 28 6 36 28 52 71 52 41 -1 71 -19 71
-44 0 -12 7 -16 25 -13 30 4 45 17 19 17 -19 1 -19 1 0 15 22 17 38 11 29 -12
-4 -11 -2 -14 8 -11 8 3 14 17 14 32 1 15 6 30 12 34 8 5 9 13 3 22 -15 24
-12 37 13 45 21 7 21 8 -8 15 -16 4 -22 8 -12 9 9 0 17 6 17 11 0 6 13 10 29
10 17 0 33 5 36 10 3 6 1 10 -5 10 -6 0 -2 10 9 21 17 18 24 20 49 11 16 -5
35 -6 43 -2 8 4 40 11 72 15 45 5 57 10 53 21 -3 8 -1 14 4 14 6 0 10 -7 10
-15 0 -8 4 -15 9 -15 5 0 11 7 15 15 3 8 15 15 26 15 11 0 20 5 20 10 0 6 9
10 20 10 11 0 23 6 26 14 3 8 11 13 18 10 10 -4 39 13 131 76 12 8 24 20 26
25 2 6 10 9 16 9 7 -1 10 2 7 7 -3 5 2 9 11 9 9 0 26 6 38 14 12 8 63 18 112
22 50 4 97 9 105 10 8 0 24 2 35 3 16 1 17 3 5 11 -9 6 -17 5 -21 -2 -4 -6 -6
1 -6 16 1 15 7 24 13 22 6 -2 27 9 47 25 43 36 120 74 167 84 19 4 48 14 64
22 18 9 31 11 35 5 3 -5 15 -12 26 -14 14 -3 7 -8 -25 -18 -163 -47 -280 -101
-275 -127 2 -14 11 -17 41 -16 21 2 40 7 43 11 7 10 93 25 135 24 37 -2 61
-22 26 -22 -25 -1 -60 -21 -60 -34 0 -4 15 -5 33 -1 29 6 30 5 17 -8 -19 -20
-70 -33 -70 -18 0 17 -46 13 -61 -6 -12 -15 -12 -16 5 -10 10 4 25 2 32 -4 10
-8 30 -9 62 -4 26 5 67 9 92 9 40 1 45 4 44 23 0 12 6 25 13 28 10 3 13 -1 8
-15 -5 -17 -2 -20 24 -20 20 0 31 5 31 14 0 12 21 19 88 28 6 1 12 7 12 14 0
8 -6 11 -16 7 -12 -4 -15 -2 -12 8 3 8 23 18 46 23 23 5 42 13 42 17 0 5 7 9
16 9 10 0 14 6 10 15 -3 9 0 15 8 15 7 0 30 17 52 38 23 22 46 36 56 34 13 -2
16 1 12 12 -4 12 0 16 15 16 12 0 21 5 21 10 0 6 7 10 15 10 12 0 13 4 5 19
-8 17 -4 23 26 42 28 17 38 19 44 9 12 -19 32 -1 24 22 -6 19 -3 20 24 15 21
-4 32 -2 36 8 4 10 -1 15 -14 15 -11 0 -20 4 -20 9 0 5 20 6 45 3 41 -4 45 -3
45 17 0 14 8 23 28 27 34 9 82 42 82 57 0 6 -9 1 -21 -12 -21 -23 -59 -25 -66
-5 -5 16 66 56 87 49 10 -3 21 -1 25 4 3 6 0 8 -8 5 -17 -6 -30 10 -33 42 -3
23 20 39 38 27 6 -3 9 -2 6 3 -7 11 17 35 26 27 9 -10 7 -25 -3 -19 -5 3 -11
-6 -14 -19 -4 -24 -3 -24 13 -10 22 20 28 19 33 -7 3 -22 4 -22 15 5 6 15 23
32 37 39 18 8 24 16 19 27 -15 37 -17 54 -5 47 6 -4 9 -11 6 -16 -3 -4 2 -11
11 -14 8 -3 13 -10 10 -15 -8 -12 3 -41 15 -41 5 0 7 11 3 23 -4 20 0 26 25
37 17 7 28 17 25 22 -3 5 -14 2 -24 -7 -9 -8 -24 -13 -34 -9 -20 8 -21 24 -1
24 9 0 15 9 15 23 0 12 5 29 10 37 8 12 10 9 10 -11 0 -31 23 -44 51 -28 11 5
29 7 39 4 11 -4 20 -2 20 4 0 6 6 8 14 5 8 -3 16 4 19 17 7 24 -3 43 -10 22
-3 -7 -13 -13 -24 -13 -12 0 -16 5 -13 15 4 8 0 23 -7 32 -12 15 -11 16 8 11
16 -4 27 1 40 21 10 14 18 31 18 36 0 6 11 9 23 8 13 -2 22 3 22 11 0 9 -8 12
-22 9 -19 -4 -20 -3 -8 6 8 6 26 11 40 11 17 0 21 -3 12 -9 -11 -7 -11 -9 2
-14 10 -4 16 -1 16 7 0 17 50 51 59 40 10 -15 34 -16 44 -2 7 10 8 9 4 -3 -5
-16 9 -39 25 -39 4 0 8 7 8 15 0 8 5 15 11 15 6 0 8 -9 4 -21 -5 -14 -2 -25 6
-31 11 -6 9 -8 -6 -6 -13 2 -19 -2 -17 -11 2 -8 -3 -11 -13 -8 -18 8 -45 -1
-45 -15 0 -5 7 -8 16 -6 10 2 18 -1 20 -7 2 -5 -12 -11 -31 -12 -20 -1 -44
-11 -57 -24 l-23 -22 25 8 c41 12 90 18 90 11 0 -11 -50 -81 -55 -78 -18 9
-33 0 -28 -18 4 -14 0 -20 -11 -20 -10 0 -15 -4 -11 -9 8 -15 -15 -25 -28 -12
-6 6 -15 11 -21 11 -6 0 -5 -5 2 -12 23 -23 14 -41 -15 -34 -19 4 -23 4 -14
-3 12 -7 12 -13 0 -40 -9 -19 -19 -29 -28 -26 -9 3 -11 0 -7 -10 3 -9 0 -15
-9 -15 -18 0 -18 -1 -1 -34 11 -23 15 -24 26 -11 15 18 34 9 26 -12 -4 -11 -1
-13 14 -8 12 4 30 -2 48 -15 16 -12 45 -22 63 -23 36 -1 79 27 79 51 0 7 5 10
10 7 6 -3 10 -1 10 4 0 6 6 11 14 11 7 0 19 6 26 14 6 8 18 12 26 9 8 -3 14
-1 14 5 0 5 20 15 45 22 57 16 64 25 62 84 -2 46 5 59 30 57 5 0 19 -22 33
-47 27 -51 37 -59 59 -45 12 8 11 18 -9 63 -43 100 -70 190 -61 205 16 29 -41
119 -79 125 -45 7 160 18 534 28 325 9 372 9 392 -5 26 -17 48 -20 39 -5 -3 6
-1 10 6 10 18 0 -1 17 -26 24 -11 3 -5 4 13 2 40 -3 48 6 22 29 -14 13 -27 15
-47 10 -38 -10 -67 -10 -370 0 -193 6 -263 5 -263 -3 0 -8 36 -11 120 -9 75 1
120 -2 120 -8 0 -5 5 -3 11 5 8 11 12 12 16 3 3 -9 25 -11 80 -6 58 5 74 3 69
-6 -4 -7 -28 -12 -54 -11 -26 0 -103 -2 -172 -5 -69 -3 -129 -5 -135 -4 -5 0
-46 1 -90 2 -57 2 -83 6 -92 17 -10 12 -14 12 -21 3 -6 -10 -17 -10 -42 -3
-19 6 -65 10 -102 10 -70 0 -83 9 -48 33 20 14 19 15 -19 21 -22 3 -47 13 -56
23 -18 17 -83 22 -145 11 -58 -11 -120 -28 -138 -37 -9 -5 -37 -19 -62 -30
-25 -12 -64 -34 -86 -49 -121 -79 -152 -101 -158 -110 -3 -5 -29 -22 -58 -37
-29 -15 -64 -38 -77 -51 -13 -13 -28 -24 -33 -24 -6 0 -27 -13 -48 -30 -21
-16 -41 -30 -44 -30 -16 0 -65 -44 -59 -53 4 -6 1 -7 -6 -2 -8 4 -42 -13 -89
-46 -43 -29 -79 -55 -82 -58 -3 -3 -21 -15 -40 -25 -19 -11 -53 -34 -76 -53
-23 -18 -46 -33 -53 -33 -6 0 -11 -4 -11 -10 0 -5 -9 -10 -21 -10 -13 0 -18
-4 -13 -12 5 -8 2 -9 -9 -5 -13 5 -17 1 -17 -18 0 -27 -27 -34 -48 -13 -9 9
-12 7 -12 -11 0 -17 -4 -22 -16 -17 -12 4 -15 2 -10 -9 3 -8 0 -14 -6 -12 -6
1 -13 -4 -16 -12 -3 -8 0 -11 7 -7 16 10 14 0 -5 -18 -20 -21 -41 -21 -24 -1
15 18 7 19 -22 4 -17 -9 -18 -13 -7 -20 12 -8 12 -11 -1 -19 -10 -6 -16 -6
-18 0 -2 6 -8 10 -13 10 -6 0 -8 -4 -5 -9 9 -14 -19 -32 -38 -25 -11 4 -15 2
-11 -8 13 -33 -248 -140 -304 -125 -13 3 -19 1 -15 -5 4 -6 1 -9 -7 -6 -9 3
-14 20 -14 44 0 71 -14 71 -55 0 -21 -36 -37 -73 -36 -83 0 -12 -6 -18 -19
-19 -30 -1 -37 6 -24 22 9 11 8 14 -5 14 -20 0 -21 19 -1 26 8 4 12 10 9 15
-3 5 2 9 10 9 9 0 16 7 16 15 0 9 7 18 15 21 8 4 13 10 10 14 -3 5 3 14 12 20
14 9 15 12 4 17 -11 4 -9 9 7 22 11 9 34 43 50 75 29 58 29 59 37 30 7 -28 8
-26 23 26 17 66 21 129 11 230 -10 101 -21 145 -53 208 -15 30 -25 56 -23 58
2 3 10 -9 17 -26 7 -16 15 -30 19 -30 3 0 12 -15 20 -32 8 -18 25 -48 38 -66
21 -28 23 -35 11 -49 -12 -14 -10 -16 17 -11 26 5 27 4 12 -7 -22 -16 -22 -26
-1 -18 14 5 16 1 12 -20 -4 -20 0 -28 13 -32 19 -6 22 -44 4 -58 -5 -5 7 -6
28 -3 52 7 49 -16 -5 -39 -24 -11 -51 -27 -61 -37 -18 -18 -17 -20 17 -53 39
-37 48 -75 19 -75 -15 -1 -16 -2 -3 -10 23 -13 94 7 190 53 47 22 87 44 90 47
3 4 18 10 33 14 15 4 30 13 34 22 6 16 -47 164 -59 164 -5 0 -8 5 -8 11 0 6
-13 30 -30 54 -16 24 -30 46 -30 50 0 4 -21 36 -47 73 -65 95 -228 250 -274
262 -21 6 -40 17 -43 25 -3 8 -14 15 -24 15 -10 0 -22 4 -28 9 -5 5 -34 16
-64 26 -30 10 -62 24 -70 31 -25 22 -181 72 -244 78 -32 4 -66 11 -76 16 -20
11 -83 14 -92 5z m-38 -85 c0 -5 3 -9 8 -9 18 3 65 -2 60 -6 -5 -6 -20 -6
-135 -5 -73 0 -94 6 -79 21 10 10 146 9 146 -1z m183 -26 c31 -3 57 -11 57
-16 0 -6 -10 -8 -22 -4 -13 3 -49 9 -80 12 -32 4 -55 11 -52 16 3 5 13 7 22 4
10 -3 43 -8 75 -12z m207 -51 c59 -33 98 -60 130 -88 58 -51 70 -65 70 -76 0
-6 -28 14 -61 46 -79 73 -134 109 -154 101 -9 -3 -13 -2 -10 4 5 9 -15 15 -37
11 -5 0 -8 6 -8 15 0 17 26 13 70 -13z m-797 -90 c-16 -24 -50 -34 -37 -10 15
25 24 34 38 34 12 0 12 -4 -1 -24z m517 7 c13 -8 13 -10 -2 -10 -9 0 -20 5
-23 10 -8 13 5 13 25 0z m-574 -46 c-3 -9 -6 -18 -6 -20 0 -2 -4 -4 -9 -4 -5
0 -7 9 -4 20 3 11 10 20 15 20 6 0 7 -7 4 -16z m684 -4 c0 -5 -2 -10 -4 -10
-3 0 -8 5 -11 10 -3 6 -1 10 4 10 6 0 11 -4 11 -10z m60 -40 c0 -5 -4 -10 -9
-10 -6 0 -13 5 -16 10 -3 6 1 10 9 10 9 0 16 -4 16 -10z m1950 -80 c0 -5 -4
-10 -9 -10 -6 0 -13 5 -16 10 -3 6 1 10 9 10 9 0 16 -4 16 -10z m-2233 -12
c31 -11 33 -14 27 -48 -3 -19 -16 -44 -29 -55 -36 -31 -41 -69 -13 -97 12 -12
22 -27 20 -31 -1 -4 7 -3 19 4 19 10 21 9 16 -5 -6 -15 -4 -15 18 1 27 20 30
29 15 38 -5 3 -10 -1 -10 -9 0 -12 -7 -11 -35 7 -34 22 -43 41 -25 52 6 3 10
-1 10 -9 0 -9 5 -16 11 -16 7 0 9 10 5 25 -5 20 -3 25 11 25 10 0 28 3 41 6
16 5 22 2 22 -9 0 -31 19 -27 28 4 11 45 28 47 28 4 0 -37 -12 -48 -61 -54 -5
-1 -3 -6 5 -11 12 -8 13 -12 2 -19 -10 -6 -8 -10 8 -14 13 -3 19 -10 15 -16
-3 -6 -11 -8 -17 -5 -6 4 -13 2 -17 -3 -3 -5 -22 -16 -41 -26 -30 -14 -35 -14
-38 -2 -2 8 -10 15 -18 15 -8 0 -17 6 -20 14 -7 17 -64 40 -64 25 0 -5 -4 -9
-10 -9 -5 0 -10 9 -10 21 0 15 4 19 16 15 11 -4 18 1 21 14 3 11 9 20 14 20 5
0 9 4 9 10 0 5 -18 13 -40 16 -49 8 -51 11 -43 58 5 31 12 39 47 55 51 24 44
23 83 9z m-710 -30 c-3 -8 -6 -5 -6 6 -1 11 2 17 5 13 3 -3 4 -12 1 -19z
m3198 -8 c3 -5 2 -10 -4 -10 -5 0 -13 5 -16 10 -3 6 -2 10 4 10 5 0 13 -4 16
-10z m-2335 -10 c0 -5 -2 -10 -4 -10 -3 0 -8 5 -11 10 -3 6 -1 10 4 10 6 0 11
-4 11 -10z m116 -46 c1 -16 5 -37 9 -47 12 -28 12 -60 2 -74 -6 -9 -5 -13 2
-13 6 0 11 -3 11 -7 0 -14 -55 -73 -68 -73 -7 0 -12 -4 -12 -10 0 -5 -7 -10
-15 -10 -8 0 -15 -4 -15 -9 0 -13 -57 -34 -70 -26 -14 9 8 38 25 31 6 -2 16 3
22 12 8 14 5 17 -18 19 -16 1 -28 -2 -26 -7 1 -6 -17 -21 -40 -35 -24 -15 -43
-23 -43 -18 1 33 17 55 56 74 24 11 42 25 38 30 -3 5 2 12 10 15 9 3 13 10 10
15 -3 5 1 9 8 9 8 0 14 9 14 20 0 11 -7 20 -15 20 -20 0 57 70 78 70 14 1 13
2 -2 11 -18 10 -18 11 0 25 25 19 38 12 39 -22z m-176 6 c0 -5 -4 -10 -10 -10
-5 0 -10 5 -10 10 0 6 5 10 10 10 6 0 10 -4 10 -10z m-654 -38 c1 -25 -15 -91
-26 -102 -14 -14 -7 -31 20 -50 28 -20 40 -42 23 -39 -34 5 -30 -6 10 -31 26
-16 50 -36 53 -44 3 -7 26 -29 52 -47 25 -18 54 -41 64 -51 10 -10 30 -20 45
-23 16 -3 48 -12 73 -19 25 -8 86 -15 136 -15 l91 -2 108 56 c60 30 111 53
113 50 2 -2 0 -10 -4 -17 -16 -26 -11 -35 20 -35 33 0 55 20 56 50 0 10 7 20
15 23 8 3 21 18 28 32 24 48 42 77 52 84 5 4 10 17 10 30 0 20 6 24 42 28 35
4 41 8 33 20 -7 11 -10 12 -10 2 0 -8 -9 -12 -22 -10 -28 4 -31 33 -3 33 12 0
22 9 26 25 5 17 7 19 8 7 1 -10 10 -36 22 -58 11 -23 19 -42 17 -43 -2 -1 -14
-7 -28 -13 -24 -11 -24 -12 -2 -12 12 -1 25 -1 29 0 7 1 43 -69 43 -83 0 -13
-26 -38 -39 -38 -20 0 -11 -18 12 -25 21 -7 21 -7 2 -13 -21 -7 -33 -32 -15
-32 6 0 10 -7 10 -15 0 -8 -6 -15 -14 -15 -20 0 -9 -34 20 -61 33 -31 30 -36
-18 -35 -36 1 -42 -2 -40 -16 2 -11 -3 -18 -13 -18 -20 0 -19 -10 3 -26 16
-12 16 -13 -4 -14 -47 0 -179 53 -239 97 -20 15 -20 15 3 8 13 -4 22 -2 22 4
0 13 -38 34 -49 26 -5 -3 -12 1 -14 7 -4 10 -8 10 -15 -1 -6 -8 -18 -11 -31
-6 -16 5 -20 3 -15 -8 8 -21 -14 -31 -32 -16 -13 11 -18 10 -25 -4 -5 -9 -16
-14 -24 -11 -9 4 -15 0 -15 -10 0 -21 -10 -20 -25 1 -11 15 -14 14 -33 -5 -11
-11 -24 -17 -28 -14 -4 4 -4 -2 -1 -13 6 -18 5 -18 -12 3 -11 12 -21 28 -24
35 -3 9 -8 9 -17 1 -9 -9 -18 -8 -38 1 -15 8 -39 17 -54 20 -24 6 -28 4 -28
-13 0 -15 5 -19 19 -15 18 5 38 -24 25 -36 -4 -3 -9 -1 -11 6 -7 20 -31 3 -26
-18 9 -31 -7 -22 -22 14 -8 19 -11 44 -8 55 4 16 1 22 -10 22 -8 0 -18 6 -20
13 -3 6 -6 1 -7 -13 -1 -23 -2 -23 -15 8 -12 27 -19 32 -35 27 -13 -4 -20 -2
-21 7 0 7 -4 4 -9 -7 -13 -30 -12 -33 13 -28 18 4 29 -3 44 -27 18 -28 21 -30
28 -13 6 15 9 14 16 -11 9 -34 3 -48 -12 -26 -8 12 -12 12 -16 2 -4 -9 -8 -10
-18 -2 -15 12 -19 7 -29 -33 -5 -21 -11 -27 -24 -23 -9 3 -37 8 -61 11 -25 3
-50 10 -57 16 -7 6 -22 8 -32 5 -14 -5 -22 1 -30 20 -11 23 -9 31 19 72 30 45
31 48 16 74 -9 16 -12 30 -6 33 11 7 12 65 1 80 -4 6 -20 16 -36 23 -24 11
-31 11 -37 0 -16 -25 -24 9 -21 89 2 30 9 50 28 70 21 23 23 29 10 31 -21 4
-20 8 5 44 24 33 32 31 35 -10z m2709 19 c-3 -6 -14 -11 -23 -11 -13 0 -13 2
4 14 21 15 30 14 19 -3z m423 -12 c2 -5 10 -9 18 -9 8 0 14 -4 14 -10 0 -13
-17 -13 -25 1 -5 7 -14 5 -29 -5 -22 -14 -23 -13 -23 15 0 25 3 28 21 23 12
-4 23 -11 24 -15z m-508 -9 c0 -5 -4 -10 -10 -10 -5 0 -10 5 -10 10 0 6 5 10
10 10 6 0 10 -4 10 -10z m-123 -22 c-3 -8 -6 -5 -6 6 -1 11 2 17 5 13 3 -3 4
-12 1 -19z m49 -27 c-3 -5 -15 -11 -26 -14 -17 -4 -19 -3 -9 9 12 15 44 20 35
5z m-2140 -11 c8 0 14 -6 14 -14 0 -11 -8 -11 -40 -3 -25 7 -35 14 -27 19 6 4
18 6 25 3 8 -3 20 -5 28 -5z m504 -10 c0 -11 -4 -20 -9 -20 -5 0 -7 9 -4 20 3
11 7 20 9 20 2 0 4 -9 4 -20z m1636 -16 c-11 -7 -22 -11 -25 -8 -3 3 3 12 13
20 11 7 22 11 25 8 3 -3 -3 -12 -13 -20z m-161 -14 c-19 -21 -35 -26 -35 -12
0 5 10 14 23 20 31 15 32 14 12 -8z m-55 -20 c0 -5 -5 -10 -11 -10 -5 0 -7 5
-4 10 3 6 8 10 11 10 2 0 4 -4 4 -10z m550 -24 c0 -3 -4 -8 -10 -11 -5 -3 -10
-1 -10 4 0 6 5 11 10 11 6 0 10 -2 10 -4z m-477 -23 c-6 -14 -14 -16 -37 -7
-26 10 -18 23 13 21 18 -1 27 -7 24 -14z m630 -23 c3 -11 1 -23 -4 -26 -5 -3
-9 6 -9 20 0 31 6 34 13 6z m-2173 -20 c0 -5 -4 -10 -10 -10 -5 0 -10 5 -10
10 0 6 5 10 10 10 6 0 10 -4 10 -10z m-530 -10 c0 -5 -6 -10 -14 -10 -8 0 -18
5 -21 10 -3 6 3 10 14 10 12 0 21 -4 21 -10z m1850 -15 c-7 -9 -15 -13 -18
-10 -3 2 1 11 8 20 7 9 15 13 18 10 3 -2 -1 -11 -8 -20z m-741 2 c-2 -2 -23
-18 -45 -35 -47 -36 -56 -38 -73 -18 -10 12 -8 17 8 25 11 6 28 11 38 11 10 0
29 6 43 13 21 11 43 14 29 4z m-791 -32 c-3 -3 -9 2 -12 12 -6 14 -5 15 5 6 7
-7 10 -15 7 -18z m1672 6 c0 -19 -32 -41 -61 -41 -36 0 -30 15 14 34 39 18 47
19 47 7z m-163 -28 c0 -20 -27 -44 -40 -36 -5 3 2 16 14 29 27 29 26 28 26 7z
m-737 -1 c0 -8 -43 -32 -55 -32 -15 0 -1 22 18 30 29 11 37 12 37 2z m785 -36
c-15 -23 -73 -52 -83 -41 -7 6 40 44 56 45 6 0 12 5 12 10 0 6 7 10 15 10 14
0 14 -3 0 -24z m-139 -1 c-11 -8 -22 -12 -25 -9 -6 6 19 24 34 24 6 -1 1 -7
-9 -15z m-128 -44 c-12 -20 -42 -33 -52 -24 -4 5 27 25 62 42 1 0 -3 -8 -10
-18z m79 7 c-2 -7 -11 -12 -20 -10 -8 1 -18 -2 -22 -8 -3 -5 -12 -10 -18 -10
-17 1 32 40 50 40 8 0 13 -6 10 -12z m78 -28 c3 -5 -9 -16 -27 -23 -28 -12
-34 -12 -41 0 -4 7 -5 18 -2 23 8 13 62 13 70 0z m-120 -20 c-3 -6 4 -10 17
-10 22 -1 22 -1 4 -15 -11 -8 -27 -15 -37 -15 -9 0 -30 -14 -46 -30 -26 -27
-32 -29 -43 -15 -16 19 -34 20 -27 0 4 -8 1 -17 -5 -21 -7 -5 -8 -2 -3 6 5 8
3 11 -6 8 -8 -3 -13 -10 -12 -16 1 -5 -5 -13 -14 -16 -12 -5 -14 -2 -10 14 3
11 0 20 -6 20 -6 0 -1 7 11 16 12 8 27 12 32 9 6 -3 10 -1 10 5 0 6 5 8 10 5
6 -3 10 -1 10 4 0 6 9 11 21 11 11 0 17 4 14 10 -4 6 1 7 10 3 10 -3 20 -1 24
4 5 8 41 32 49 33 2 0 0 -4 -3 -10z m-110 -20 c-3 -5 -13 -10 -21 -10 -8 0
-12 5 -9 10 3 6 13 10 21 10 8 0 12 -4 9 -10z m207 -35 c0 -5 -5 -11 -11 -13
-6 -2 -11 4 -11 13 0 9 5 15 11 13 6 -2 11 -8 11 -13z m-298 -9 c-3 -7 -23
-19 -45 -26 -43 -15 -47 -36 -6 -33 23 1 25 -1 18 -20 -5 -12 -19 -23 -32 -25
-13 -2 -28 -8 -33 -13 -6 -5 -23 -9 -38 -9 l-29 0 35 31 c19 16 33 36 31 42
-3 7 16 24 43 39 54 31 63 33 56 14z m243 -11 c-4 -8 -14 -15 -23 -15 -16 0
-16 2 1 20 20 22 31 20 22 -5z m-47 6 c0 -9 -24 -21 -42 -21 -6 0 -6 6 2 15
14 16 40 20 40 6z m-62 -55 c-1 -2 -21 -6 -43 -10 l-40 -6 23 20 c19 16 28 17
44 9 11 -6 18 -12 16 -13z m-1006 -17 c62 -24 74 -34 57 -44 -8 -5 -10 -4 -5
3 4 8 0 12 -11 13 -21 0 -124 48 -106 49 7 0 36 -9 65 -21z m-42 -27 c3 -2 -6
-1 -20 3 -14 4 -32 14 -40 22 -12 12 -7 11 20 -2 19 -10 37 -20 40 -23z m932
6 c-9 -9 -15 -9 -24 0 -9 9 -7 12 12 12 19 0 21 -3 12 -12z m-202 -58 c0 -5
-5 -10 -11 -10 -5 0 -7 5 -4 10 3 6 8 10 11 10 2 0 4 -4 4 -10z m-1489 -28
c-6 -12 -11 -31 -11 -45 0 -17 -5 -23 -20 -22 -33 2 -33 11 -1 44 17 18 31 37
31 43 0 6 3 9 6 6 3 -4 1 -15 -5 -26z m1559 18 c0 -5 -7 -10 -16 -10 -8 0 -12
5 -9 10 3 6 10 10 16 10 5 0 9 -4 9 -10z m-1530 -65 c0 -35 -4 -45 -16 -45
-12 0 -14 5 -9 18 4 9 10 29 13 45 7 40 12 33 12 -18z m1550 35 c0 -5 -7 -10
-16 -10 -8 0 -12 5 -9 10 3 6 10 10 16 10 5 0 9 -4 9 -10z m70 -2 c0 -4 -11
-8 -24 -8 -14 0 -27 4 -30 8 -3 5 8 9 24 9 17 0 30 -4 30 -9z m-130 -23 c11
-13 8 -15 -15 -15 -23 0 -26 2 -15 15 7 8 14 15 15 15 1 0 8 -7 15 -15z m-785
-25 c26 -27 27 -30 9 -30 -11 0 -27 13 -37 30 -10 17 -14 30 -9 30 4 0 21 -13
37 -30z m212 0 c-14 -11 -29 -20 -33 -20 -4 0 1 9 11 20 10 11 25 20 33 20 9
0 6 -7 -11 -20z m-167 -40 c0 -5 -5 -10 -11 -10 -5 0 -7 5 -4 10 3 6 8 10 11
10 2 0 4 -4 4 -10z m-729 -36 c12 -14 11 -16 -5 -13 -11 2 -21 10 -24 17 -5
17 13 15 29 -4z m136 -18 c-3 -26 -24 -56 -38 -56 -15 0 -10 42 8 62 22 25 34
23 30 -6z m133 -26 c0 -5 -7 -7 -15 -4 -8 4 -15 8 -15 10 0 2 7 4 15 4 8 0 15
-4 15 -10z m-58 -125 c67 -9 71 -25 6 -25 -70 0 -98 8 -91 26 3 8 13 13 22 10
9 -2 37 -7 63 -11z m-73 -151 c25 -5 29 -9 20 -20 -13 -16 -33 -19 -24 -4 4 6
-5 10 -19 10 -14 0 -26 5 -26 10 0 12 7 12 49 4z m-179 -40 c0 -8 -5 -12 -10
-9 -6 4 -8 11 -5 16 9 14 15 11 15 -7z m2755 -135 c4 -19 13 -53 21 -77 8 -24
11 -48 8 -54 -4 -6 -2 -13 3 -17 14 -9 25 -59 14 -65 -5 -4 -14 9 -20 27 -20
58 -62 230 -67 267 l-4 35 19 -41 c10 -22 22 -56 26 -75z m-2977 -108 c-5 -2
-16 6 -24 18 -9 12 -20 19 -25 16 -5 -3 -6 0 -3 8 4 11 12 8 33 -12 16 -14 25
-28 19 -30z m127 29 c-3 -5 -14 -10 -23 -10 -15 0 -15 2 -2 10 20 13 33 13 25
0z m-240 -130 c3 -5 1 -10 -4 -10 -6 0 -11 5 -11 10 0 6 2 10 4 10 3 0 8 -4
11 -10z m31 -126 c-10 -27 -26 1 -25 46 l0 35 16 -32 c9 -17 13 -39 9 -49z
m3138 38 c11 -18 57 -205 52 -210 -11 -10 -18 7 -41 95 -13 48 -26 96 -30 106
-7 17 9 25 19 9z m-244 -87 c33 -17 120 -112 120 -130 0 -31 -20 -22 -46 20
-16 24 -42 51 -59 59 -16 7 -42 19 -57 26 -61 29 -149 -9 -302 -131 -107 -86
-131 -100 -131 -81 0 6 97 96 130 120 6 4 37 28 70 53 54 41 102 68 145 81 25
8 100 -2 130 -17z m-2885 -6 c4 -5 8 -20 10 -32 11 -81 18 -123 22 -132 3 -5
-2 -3 -11 6 -11 10 -19 38 -23 75 -3 32 -10 67 -15 77 -9 19 6 25 17 6z m3208
-175 c2 -11 7 -26 10 -34 3 -8 21 -60 41 -115 19 -55 49 -136 65 -180 29 -75
43 -135 55 -247 3 -27 2 -48 -3 -48 -8 0 -24 66 -25 105 -1 11 -4 25 -7 30 -3
6 -9 22 -13 37 -20 83 -110 319 -121 315 -6 -3 -17 4 -23 14 -14 21 -3 25 17
7 15 -14 12 -1 -17 83 -16 48 -10 101 9 68 5 -9 10 -25 12 -35z m-172 -11 c6
-16 17 -41 25 -56 8 -16 17 -46 20 -68 8 -46 14 -44 25 8 6 32 7 26 7 -32 0
-38 5 -103 11 -144 11 -75 -2 -191 -22 -191 -4 0 -6 -4 -2 -10 12 -19 -57
-132 -128 -209 -18 -20 -31 -43 -29 -50 3 -9 0 -11 -8 -6 -7 4 -16 2 -20 -5
-19 -31 -313 -334 -660 -680 -473 -474 -539 -536 -862 -826 -14 -13 -29 -24
-32 -24 -3 0 -24 -18 -48 -40 -24 -22 -61 -52 -83 -68 -21 -15 -57 -44 -80
-65 -92 -87 -235 -164 -235 -127 0 5 11 12 25 16 14 3 25 9 25 13 0 4 16 13
35 20 37 13 85 72 85 103 0 22 28 24 36 3 7 -18 27 -6 104 65 30 27 57 50 61
50 4 0 28 21 53 47 25 25 46 44 46 40 0 -3 20 13 44 36 24 23 84 78 132 122
93 83 866 853 1109 1105 78 80 181 190 230 245 49 55 100 111 112 125 13 14
32 43 43 65 11 22 20 36 20 30 1 -5 7 5 15 23 25 58 29 151 10 228 -24 99 -53
183 -75 225 -11 20 -20 42 -20 48 0 21 21 11 31 -16z m-661 -82 c0 -20 -67
-77 -78 -67 -5 5 65 86 75 86 2 0 3 -8 3 -19z m-2142 -18 c3 -20 -82 -143 -99
-143 -5 0 -9 -7 -9 -15 0 -9 -7 -18 -15 -21 -8 -4 -15 -12 -15 -19 0 -6 -9
-20 -20 -30 -16 -14 -23 -16 -32 -7 -9 9 -5 19 15 40 15 15 27 35 27 44 0 9
13 30 30 48 16 18 44 54 62 81 32 51 51 58 56 22z m-1490 -15 c321 -1 482 -5
482 -12 0 -6 5 -5 12 2 18 18 142 16 158 -2 6 -8 26 -17 43 -19 18 -3 -329 -4
-770 -3 -471 0 -803 5 -803 10 0 17 -235 -2 -290 -23 -54 -21 -66 -14 -24 14
64 42 86 44 404 39 168 -2 522 -5 788 -6z m910 -25 c-10 -2 -26 -2 -35 0 -10
3 -2 5 17 5 19 0 27 -2 18 -5z m2616 -28 c-4 -8 -8 -15 -10 -15 -2 0 -4 7 -4
15 0 8 4 15 10 15 5 0 7 -7 4 -15z m-39 -35 c-3 -5 -11 -10 -16 -10 -6 0 -7 5
-4 10 3 6 11 10 16 10 6 0 7 -4 4 -10z m-2610 -28 l30 -9 -30 -6 c-16 -4 -140
-9 -275 -12 -144 -3 -246 -10 -248 -15 -5 -14 -32 -12 -37 3 -4 9 -126 13
-552 15 -478 2 -553 0 -595 -14 -26 -8 -48 -20 -48 -24 0 -5 -7 -7 -15 -4 -8
4 -15 1 -15 -5 0 -6 -14 -32 -31 -59 l-31 -47 6 43 c8 56 65 118 127 137 36
11 189 13 864 10 463 -2 833 -7 850 -13z m-1918 -30 c-9 -10 -26 -40 -39 -67
-19 -43 -22 -65 -20 -151 2 -98 1 -102 -20 -108 -13 -3 -28 -6 -34 -6 -18 0
-47 206 -37 269 9 60 13 63 113 80 54 9 58 7 37 -17z m4499 15 c-10 -7 -28
-22 -39 -34 -21 -23 -47 -31 -47 -14 0 17 61 61 83 60 21 0 21 -1 3 -12z m-86
-78 c0 -5 -6 -12 -14 -15 -8 -3 -36 -26 -61 -51 -35 -34 -50 -42 -58 -34 -12
12 3 29 81 94 32 26 52 28 52 6z m-2340 -23 c0 -2 -44 -39 -97 -82 -115 -92
-225 -195 -296 -277 l-51 -59 23 -19 c13 -11 21 -22 17 -26 -3 -4 4 -17 16
-30 28 -29 14 -30 -21 0 -34 28 -60 47 -138 98 -35 23 -63 48 -63 56 0 10 -6
13 -16 9 -23 -9 -118 35 -102 46 9 6 5 7 -9 3 -16 -4 -26 0 -38 18 -8 13 -31
32 -50 43 -19 10 -35 21 -35 25 0 3 46 9 102 13 113 8 155 21 185 59 11 15 23
24 26 21 7 -7 17 45 14 71 -2 19 5 20 178 25 300 9 355 10 355 6z m-1527 -18
c13 -10 17 -21 12 -40 -6 -24 -12 -26 -98 -37 -74 -10 -199 -32 -298 -53 -19
-4 -14 112 6 128 23 17 355 19 378 2z m-535 -38 c-5 -17 -14 -30 -19 -30 -12
0 -11 12 1 45 14 37 32 22 18 -15z m1292 -19 c63 -6 64 -7 25 -13 -123 -21
-245 -20 -245 2 0 18 103 23 220 11z m-365 -11 c4 -6 -5 -10 -20 -10 -15 0
-24 4 -20 10 3 6 12 10 20 10 8 0 17 -4 20 -10z m1496 -87 c14 -37 18 -55 30
-138 6 -38 14 -77 19 -86 11 -21 43 -210 36 -217 -3 -3 -2 -10 2 -16 10 -14
28 -74 42 -146 6 -30 15 -73 20 -95 15 -66 21 -153 9 -133 -11 19 -45 160 -60
248 -5 30 -14 74 -19 98 -6 23 -10 55 -10 70 0 15 -4 32 -9 38 -7 8 -35 158
-44 234 -1 14 -5 30 -9 35 -5 8 -28 117 -28 132 0 12 12 -2 21 -24z m-1761
-23 c-80 -4 -165 -11 -190 -15 -25 -4 -42 -5 -39 -1 12 13 127 24 249 23 l125
0 -145 -7z m195 -21 c44 -6 116 -17 159 -25 43 -9 82 -12 85 -7 3 4 23 10 44
11 28 3 45 -2 60 -16 12 -11 41 -28 65 -37 24 -10 41 -19 38 -22 -2 -2 -20 3
-41 11 -45 19 -44 -1 1 -24 66 -33 114 -64 114 -73 0 -14 32 -36 53 -37 9 0
17 -5 17 -12 0 -7 14 -27 32 -45 29 -30 30 -34 16 -50 -9 -10 -66 -74 -127
-143 -65 -73 -109 -131 -106 -139 4 -9 0 -11 -12 -6 -67 27 -171 58 -266 79
-241 54 -437 57 -714 11 -39 -7 -42 -6 -47 16 -18 85 -66 381 -66 407 0 18 5
32 11 32 5 0 7 -4 4 -10 -8 -13 -7 -13 61 11 196 68 431 94 619 68z m-488 -15
c-3 -3 -12 -4 -19 -1 -8 3 -5 6 6 6 11 1 17 -2 13 -5z m-430 -46 c-3 -8 -6 -5
-6 6 -1 11 2 17 5 13 3 -3 4 -12 1 -19z m330 16 c-3 -3 -12 -4 -19 -1 -8 3 -5
6 6 6 11 1 17 -2 13 -5z m5343 -4 c0 -5 -4 -10 -10 -10 -5 0 -10 5 -10 10 0 6
5 10 10 10 6 0 10 -4 10 -10z m-3619 -67 c-31 -62 -169 -243 -185 -243 -17 0
-39 26 -34 39 3 11 228 241 234 241 3 0 -4 -17 -15 -37z m169 -4 c0 -11 -7
-22 -15 -25 -8 -4 -15 -13 -15 -20 0 -17 -29 -60 -155 -231 -68 -93 -95 -122
-112 -123 -13 0 -23 2 -23 4 0 6 44 69 115 166 30 41 71 100 91 130 20 30 40
57 43 60 4 3 17 20 30 38 24 34 41 34 41 1z m3688 -91 c32 -89 79 -270 84
-323 3 -28 1 -30 -39 -35 -44 -6 -57 -3 -60 15 -1 6 -15 78 -32 160 -34 172
-40 240 -22 274 18 33 31 16 69 -91z m-4428 17 c11 -13 10 -14 -4 -9 -9 3 -16
10 -16 15 0 13 6 11 20 -6z m4591 -94 c23 -65 70 -261 74 -307 2 -18 8 -40 13
-50 5 -11 15 -44 22 -74 6 -30 32 -147 56 -260 25 -113 63 -290 85 -395 21
-104 44 -205 49 -225 26 -91 100 -455 96 -467 -3 -7 -1 -15 3 -17 13 -8 34
-153 26 -173 -7 -16 -9 -15 -15 7 -5 14 -8 40 -9 58 -1 17 -6 32 -12 32 -6 0
-8 7 -5 16 4 9 -3 49 -14 88 -11 39 -33 134 -49 211 -58 269 -120 551 -156
700 -8 33 -31 134 -51 225 -42 195 -116 512 -137 592 -9 31 -18 78 -22 105
l-6 48 17 -29 c9 -16 25 -54 35 -85z m-6051 96 c0 -1 9 -49 21 -107 20 -102
48 -265 49 -285 0 -6 -13 -12 -29 -13 -34 -3 -33 -5 -76 238 -25 137 -25 145
-9 157 15 11 44 18 44 10z m1664 -96 c-3 -3 -15 6 -27 18 l-22 24 27 -19 c14
-10 24 -21 22 -23z m4312 -25 c-2 -6 -8 0 -14 14 -5 14 -7 29 -4 34 7 12 24
-33 18 -48z m-4216 29 c11 -13 10 -14 -4 -9 -9 3 -16 10 -16 15 0 13 6 11 20
-6z m-1992 -112 c6 -27 20 -101 32 -166 17 -91 26 -117 36 -113 35 13 6 -7
-89 -63 -125 -75 -207 -136 -331 -247 -52 -46 -97 -84 -100 -84 -8 0 2 26 64
155 127 268 319 565 366 565 7 0 17 -21 22 -47z m1982 -13 c-11 -7 -7 -10 20
-11 19 -1 27 -3 17 -6 -9 -2 -15 -9 -12 -13 11 -18 -35 -88 -187 -280 l-26
-34 -41 27 c-23 15 -41 31 -41 35 0 4 15 23 33 42 17 19 72 80 122 135 96 107
104 115 120 115 6 0 3 -5 -5 -10z m4085 -125 c9 -40 -3 -27 -15 15 -5 19 -6
29 -1 24 5 -5 12 -22 16 -39z m-3955 -18 c0 -13 -8 -33 -17 -45 -10 -12 -48
-61 -85 -109 -268 -350 -421 -547 -543 -698 -88 -109 -354 -443 -417 -524 -27
-33 -48 -64 -48 -68 0 -5 -13 -20 -28 -35 -16 -15 -46 -50 -68 -77 -21 -28
-42 -51 -46 -51 -10 0 -10 37 0 42 4 2 26 28 48 59 25 35 45 54 54 51 8 -3 12
-1 8 3 -4 4 1 19 10 34 23 37 232 303 252 321 3 3 33 40 66 83 32 43 73 95 89
116 63 80 191 245 209 270 47 63 141 186 146 191 3 3 31 39 63 80 31 41 60 80
65 85 11 14 138 179 176 231 27 35 55 64 63 64 2 0 3 -11 3 -23z m-940 -67
c108 -13 268 -51 335 -80 73 -31 175 -83 175 -89 0 -4 -8 -8 -17 -9 -19 0 -24
1 -120 42 -67 29 -147 55 -228 76 -27 7 -54 16 -60 20 -5 5 -30 10 -55 13 -25
3 -83 10 -130 16 -103 12 -102 12 -65 20 32 7 38 7 165 -9z m-253 4 c-3 -3
-12 -4 -19 -1 -8 3 -5 6 6 6 11 1 17 -2 13 -5z m1261 -56 c126 -149 243 -352
295 -513 72 -218 98 -398 98 -679 -1 -235 -1 -236 -52 -236 l-26 0 -7 118
c-11 186 -32 309 -71 422 -43 123 -119 277 -183 374 -52 78 -168 212 -231 269
-25 22 -39 43 -35 50 20 35 169 227 177 227 4 0 20 -14 35 -32z m4346 -26 c43
-6 83 -15 89 -21 8 -8 1 -8 -21 -2 -17 5 -60 12 -96 16 -59 7 -66 6 -66 -11 0
-27 -7 -13 -15 31 -7 40 -7 40 12 19 14 -16 38 -24 97 -32z m-304 16 c0 -9
-22 -14 -73 -15 -69 -2 -71 -2 -42 12 38 18 115 20 115 3z m-5753 -55 c-3 -10
-5 -4 -5 12 0 17 2 24 5 18 2 -7 2 -21 0 -30z m6230 -6 c4 -7 0 -8 -11 -4 -10
4 -22 7 -27 7 -5 0 -9 4 -9 9 0 12 38 2 47 -12z m-4258 -41 c-3 -3 -11 5 -18
17 -13 21 -12 21 5 5 10 -10 16 -20 13 -22z m4354 20 c15 -5 27 -12 27 -18 0
-9 -18 -6 -67 13 -46 17 -15 21 40 5z m-953 -7 c0 -5 -12 -9 -26 -9 -14 0 -23
4 -20 8 7 11 46 12 46 1z m-80 -29 c-14 -11 -28 -20 -33 -20 -4 0 -25 -11 -47
-25 -22 -14 -40 -22 -40 -18 0 7 32 29 104 70 33 20 44 15 16 -7z m494 -11
c-7 -12 -141 -12 -149 0 -3 5 21 12 52 16 32 4 63 8 68 9 14 5 36 -14 29 -25z
m304 5 c237 -49 496 -181 660 -336 41 -39 52 -58 32 -58 -5 0 -40 27 -77 61
-185 165 -448 290 -665 315 -34 4 -59 12 -62 20 -7 18 16 18 112 -2z m337 0
c110 -37 325 -185 455 -314 110 -109 220 -249 220 -280 0 -14 -19 5 -44 45
-32 50 -218 245 -286 300 -106 85 -166 128 -205 147 -25 12 -45 26 -45 30 0 4
-4 8 -9 8 -6 0 -43 18 -83 40 -77 42 -78 50 -3 24z m-5785 -19 c54 -12 57 -14
15 -9 -27 4 -90 10 -140 14 l-90 7 75 1 c41 0 104 -6 140 -13z m1757 -7 c-3
-8 -6 -5 -6 6 -1 11 2 17 5 13 3 -3 4 -12 1 -19z m-1585 -29 c39 -11 68 -23
65 -26 -3 -2 -20 0 -39 6 -18 6 -55 17 -83 25 -27 8 -41 15 -31 15 10 1 50 -8
88 -20z m1585 -11 c-3 -8 -6 -5 -6 6 -1 11 2 17 5 13 3 -3 4 -12 1 -19z m2763
-2 c0 -2 -12 -11 -27 -20 l-28 -17 24 20 c23 21 31 25 31 17z m215 -22 c-218
-115 -321 -203 -448 -380 -35 -50 -78 -118 -93 -152 -27 -57 -44 -77 -44 -52
0 13 49 106 91 174 104 168 287 335 452 412 70 32 103 31 42 -2z m-5348 -6
c-3 -8 -6 -5 -6 6 -1 11 2 17 5 13 3 -3 4 -12 1 -19z m913 -4 l25 -15 -25 7
c-14 3 -32 10 -40 15 -13 7 -13 8 0 8 8 0 26 -6 40 -15z m1467 -6 c-3 -8 -6
-5 -6 6 -1 11 2 17 5 13 3 -3 4 -12 1 -19z m-1313 -39 c26 -17 46 -33 43 -35
-6 -7 -103 42 -112 56 -12 19 20 10 69 -21z m-1054 1 c0 -11 -2 -20 -4 -20 -2
0 -6 9 -9 20 -3 11 -1 20 4 20 5 0 9 -9 9 -20z m5779 -42 c12 -12 23 -38 27
-57 3 -20 8 -44 11 -55 4 -13 1 -16 -7 -11 -8 5 -11 4 -7 -2 4 -5 16 -70 27
-144 26 -171 30 -189 40 -189 5 0 10 8 12 18 6 24 30 -93 25 -120 -4 -27 -10
-15 -25 52 -8 36 -9 24 -4 -57 l5 -102 -23 4 c-27 5 -22 -1 -44 58 -10 26 -15
54 -12 62 3 8 0 15 -7 15 -8 0 -27 57 -51 158 -21 86 -44 183 -52 214 -8 32
-14 79 -14 106 0 43 3 49 28 59 40 16 49 15 71 -9z m-5296 -42 c43 -7 85 -20
94 -28 14 -14 12 -19 -24 -54 -21 -22 -68 -73 -105 -114 -37 -41 -69 -72 -71
-70 -4 4 -12 253 -8 273 1 9 21 8 114 -7z m-333 -183 c-1 -184 -8 -202 -29
-73 -7 41 -19 108 -28 149 -8 40 -12 79 -9 87 3 8 19 14 36 14 l30 0 0 -177z
m5394 149 c8 -14 107 -465 103 -476 -2 -5 -20 15 -40 45 -47 67 -227 371 -227
381 0 10 34 27 84 43 49 16 73 18 80 7z m-4794 -38 c0 -2 -9 -4 -20 -4 -11 0
-20 4 -20 9 0 5 9 7 20 4 11 -3 20 -7 20 -9z m5386 -14 c37 -12 55 -13 68 -6
13 9 32 3 89 -28 89 -48 137 -84 137 -102 0 -8 -51 -85 -113 -172 -62 -86
-126 -178 -142 -204 -17 -27 -35 -48 -41 -48 -6 0 -17 28 -23 63 -6 34 -16 85
-22 112 -73 348 -78 378 -68 396 11 21 21 20 115 -11z m-4822 -27 c8 -19 -18
-5 -32 17 -11 19 -11 19 8 8 11 -7 22 -18 24 -25z m-434 -8 c27 -13 51 -28 54
-33 2 -4 -12 -29 -32 -54 -71 -90 -237 -302 -244 -312 -4 -6 -10 -8 -13 -4 -6
6 115 348 141 401 18 33 31 34 94 2z m4502 -17 c14 -12 29 -63 32 -115 0 -13
6 -23 11 -23 16 -1 52 -35 58 -56 3 -10 7 -56 9 -101 1 -60 6 -83 15 -83 7 0
13 -5 13 -11 0 -5 -6 -7 -12 -3 -7 4 -6 -1 4 -12 9 -10 22 -35 30 -54 12 -31
14 -41 9 -67 -1 -11 -71 86 -82 115 -5 12 -13 22 -19 22 -13 0 -13 2 48 -98
24 -40 42 -76 38 -79 -7 -7 -70 42 -174 135 -44 40 -93 83 -108 95 -16 12 -45
37 -64 55 -19 18 -49 43 -67 55 -34 23 -44 45 -36 75 5 19 115 112 132 112 6
0 34 -40 63 -90 29 -49 54 -87 57 -85 2 3 -9 26 -25 52 -41 65 -59 112 -48
123 11 10 86 50 94 50 4 0 13 -6 22 -12z m1505 -161 c75 -96 112 -156 168
-268 60 -119 135 -329 135 -378 0 -18 4 -40 9 -50 19 -34 32 -301 21 -397 -19
-148 -25 -273 -20 -382 l5 -102 -36 0 c-38 0 -49 11 -49 53 -1 21 -1 21 -15
-3 -19 -33 -19 -19 0 27 9 22 15 67 15 119 0 78 -1 84 -21 84 -20 0 -20 -4
-18 -143 l3 -143 -37 -61 c-20 -33 -44 -66 -52 -73 -8 -7 -15 -18 -15 -24 0
-14 -136 -163 -143 -156 -3 3 22 35 57 71 34 36 84 101 111 145 27 43 53 81
57 82 21 9 4 22 -27 22 l-35 0 0 140 c0 118 -2 140 -15 140 -13 0 -15 -22 -15
-140 l0 -140 -40 0 -40 0 0 98 c-1 94 -1 96 -15 63 -8 -18 -15 -62 -15 -97 0
-45 -4 -64 -13 -64 -7 0 -20 -13 -29 -28 -9 -15 -28 -34 -42 -41 -23 -13 -28
-11 -73 28 -27 22 -59 41 -72 41 -19 0 -15 -6 26 -41 26 -23 49 -45 51 -50 2
-4 -21 -31 -50 -59 -43 -41 -58 -50 -81 -47 -19 2 -26 0 -23 -9 7 -18 -39 -57
-71 -60 -16 -2 -40 -6 -54 -9 -24 -6 -30 0 -91 107 -36 62 -82 145 -103 183
-41 75 -57 104 -99 175 -14 25 -26 55 -26 66 0 22 60 84 81 84 18 0 49 -20 49
-33 0 -13 53 -58 81 -69 29 -11 24 26 -5 45 -13 9 -38 29 -55 45 -27 25 -30
31 -17 41 8 7 24 32 35 57 12 24 28 44 36 44 8 0 44 -26 79 -59 36 -32 75 -61
87 -64 22 -6 22 -6 3 12 -10 9 -52 46 -91 80 -40 35 -71 67 -68 72 3 4 58 -10
122 -32 63 -22 117 -38 120 -35 2 2 -39 18 -91 36 -116 38 -136 53 -143 105
-5 40 -5 40 39 53 23 7 64 12 91 11 34 -2 51 2 60 14 9 12 46 19 162 29 83 7
179 13 215 13 l65 0 3 -76 c2 -59 -2 -86 -18 -125 -12 -27 -24 -73 -27 -101
-6 -52 -5 -53 21 -53 17 0 26 -5 26 -17 0 -15 1 -15 18 0 24 22 61 22 77 0 13
-17 14 -17 34 1 14 12 31 17 54 14 l34 -4 12 116 c14 142 -4 352 -38 443 -6
15 -10 49 -10 75 3 106 -194 485 -333 641 -57 65 -66 102 -12 50 20 -18 56
-60 81 -92z m-7212 -55 c14 -78 23 -147 20 -152 -4 -7 -28 7 -58 33 -71 60
-93 69 -34 15 56 -53 63 -75 8 -27 -133 116 -131 116 -126 17 l2 -59 -38 3
c-51 3 -72 -16 -41 -38 13 -9 30 -24 40 -33 9 -10 42 -39 72 -65 88 -76 181
-158 222 -197 40 -38 49 -69 22 -69 -9 0 -134 39 -278 86 -294 96 -316 104
-316 112 0 10 62 115 102 175 31 46 44 58 60 54 15 -4 17 -3 8 8 -16 19 6 64
53 106 28 25 36 38 28 43 -8 5 -14 0 -18 -13 -5 -22 -46 -30 -57 -12 -8 12 12
63 27 73 20 13 75 9 89 -6 11 -11 19 -8 53 19 66 54 118 86 126 78 4 -5 19
-72 34 -151z m6877 123 c55 -40 69 -76 43 -105 -17 -19 -17 -20 3 -20 12 0 38
-20 65 -52 57 -68 70 -94 59 -115 -7 -11 -2 -28 17 -57 15 -23 36 -58 46 -78
13 -26 26 -38 41 -38 15 0 26 -13 43 -52 13 -29 29 -66 36 -83 17 -39 35 -117
29 -126 -10 -16 -614 -61 -629 -46 -7 6 -6 11 1 14 7 2 -1 16 -17 33 -38 38
-35 89 10 155 17 25 29 51 26 56 -5 7 160 256 185 279 13 12 60 87 60 96 0 5
-9 -4 -20 -21 -11 -16 -36 -53 -57 -82 -21 -28 -69 -95 -108 -149 -38 -55 -75
-106 -82 -114 -7 -8 -26 -34 -43 -57 -34 -49 -44 -52 -61 -20 -7 12 -18 27
-25 32 -6 6 -17 27 -24 48 -11 35 -10 41 21 88 18 28 37 56 44 62 6 7 26 33
43 60 18 26 43 58 55 71 13 13 29 37 37 53 8 15 17 30 20 33 16 14 90 134 90
145 0 13 15 23 35 24 6 0 31 -15 57 -34z m-1369 -204 c7 -2 19 -11 27 -20 8
-9 40 -36 70 -60 30 -24 62 -51 70 -60 8 -9 42 -38 75 -65 87 -70 137 -118
158 -150 16 -23 17 -32 7 -56 -18 -43 -45 -63 -74 -56 -22 5 -77 45 -134 98
-12 11 -39 34 -60 50 -45 36 -135 115 -217 189 -34 31 -73 64 -87 73 -42 27
-41 51 3 106 24 30 37 56 33 63 -4 6 20 -15 55 -48 34 -33 67 -62 74 -64z
m-3924 -18 c50 -70 59 -89 49 -99 -20 -20 -509 -271 -543 -280 l-30 -7 20 23
c62 70 190 206 350 372 11 12 14 17 6 13 -10 -5 -12 -4 -7 4 4 6 11 9 16 6 5
-3 18 8 30 25 12 16 27 30 34 30 7 0 41 -39 75 -87z m-1159 27 c0 -5 -4 -10
-10 -10 -5 0 -10 5 -10 10 0 6 5 10 10 10 6 0 10 -4 10 -10z m7022 -52 c-8 -8
-9 -4 -5 13 4 13 8 18 11 10 2 -7 -1 -18 -6 -23z m-1925 -190 c100 -87 187
-166 192 -176 5 -9 30 -37 55 -62 46 -46 58 -70 32 -70 -9 0 -13 -8 -9 -22 4
-22 4 -22 -12 2 -15 25 -15 25 -9 -14 5 -26 3 -37 -4 -32 -6 3 -12 2 -14 -4
-2 -6 -26 -4 -63 6 -102 26 -113 25 -37 -2 41 -14 70 -30 65 -34 -4 -5 -107
-15 -228 -24 -121 -9 -248 -20 -282 -23 -61 -6 -63 -5 -73 21 -11 30 -13 131
-4 189 7 39 6 39 64 19 8 -3 3 5 -12 17 -24 19 -26 26 -21 68 2 25 9 57 14 70
5 13 9 36 9 49 0 35 69 192 89 204 22 12 36 2 248 -182z m-472 119 c-13 -34
-28 -89 -34 -121 -11 -61 -17 -74 -27 -64 -3 3 0 26 7 49 7 24 13 49 15 55 10
52 45 144 55 144 4 0 -3 -28 -16 -63z m2455 -17 c0 -9 5 -21 11 -27 6 -6 9
-17 6 -25 -2 -7 -12 4 -22 27 -9 22 -23 54 -31 70 l-14 30 25 -30 c14 -16 25
-37 25 -45z m-6789 -23 c-8 -8 -11 -7 -11 4 0 20 13 34 18 19 3 -7 -1 -17 -7
-23z m5536 -59 c-3 -7 -5 -2 -5 12 0 14 2 19 5 13 2 -7 2 -19 0 -25z m-5782
-108 c3 -5 1 -10 -4 -10 -6 0 -11 5 -11 10 0 6 2 10 4 10 3 0 8 -4 11 -10z
m166 -34 c10 -17 8 -18 -15 -14 -15 3 -29 1 -33 -5 -3 -6 -1 -7 5 -3 7 4 12 1
12 -8 0 -9 -6 -16 -14 -16 -22 0 -27 28 -8 46 9 10 18 21 18 26 1 4 2 11 3 16
1 7 13 -8 32 -42z m1108 30 c13 -16 53 -192 49 -215 -2 -10 -17 -18 -41 -21
-21 -3 -37 -9 -37 -15 1 -12 -71 -23 -159 -24 -92 -1 -72 6 39 14 52 3 97 9
100 12 3 3 -33 3 -80 -1 -140 -10 -312 -25 -367 -31 -95 -11 -66 16 105 103
176 88 307 158 337 178 25 18 40 18 54 0z m5838 -8 c-3 -8 -6 -5 -6 6 -1 11 2
17 5 13 3 -3 4 -12 1 -19z m-2585 -37 c-9 -6 -16 -49 -22 -137 l-8 -129 2 135
c2 138 8 172 30 150 8 -8 7 -13 -2 -19z m-4385 -47 c-3 -3 -12 -4 -19 -1 -8 3
-5 6 6 6 11 1 17 -2 13 -5z m-1130 -98 c73 -28 443 -146 457 -146 17 0 41 -28
32 -38 -4 -4 -35 -10 -69 -14 -51 -5 -45 -6 28 -3 117 4 88 -11 -35 -18 -63
-4 -88 -2 -75 4 21 10 -1 9 -269 -13 -91 -7 -142 -14 -130 -19 10 -4 16 -8 12
-8 -3 -1 -13 -4 -22 -7 -23 -9 -31 55 -18 145 12 86 27 131 42 131 5 0 27 -6
47 -14z m5384 -43 c-16 -35 -25 -22 -16 24 6 32 8 35 17 19 7 -13 7 -26 -1
-43z m-1851 18 c-14 -4 -29 -17 -35 -29 -13 -29 -28 -29 -19 1 8 28 22 37 54
36 l25 -1 -25 -7z m3147 -31 c1 -25 -6 -54 -19 -75 -11 -20 -18 -41 -15 -49 5
-14 -10 -36 -25 -36 -4 0 -9 10 -9 23 -1 17 -3 15 -8 -8 -5 -22 -3 -32 9 -36
8 -4 18 -5 23 -2 4 2 7 0 7 -5 0 -5 16 -26 36 -47 29 -31 43 -38 75 -39 21 -1
40 3 42 8 7 20 65 -15 72 -42 4 -15 2 -28 -3 -30 -5 -1 -18 -10 -28 -18 -10
-9 -13 -12 -5 -8 9 5 12 3 7 -4 -8 -13 -57 -16 -93 -6 -13 4 -20 10 -17 15 3
5 -2 9 -10 9 -8 0 -21 9 -29 20 -8 11 -16 17 -20 14 -3 -3 -10 4 -17 15 -6 12
-17 21 -25 21 -8 0 -15 7 -15 15 0 7 -8 18 -17 23 -11 6 -17 23 -17 48 0 61
14 134 26 131 7 -1 16 11 22 28 6 16 20 39 31 51 11 12 20 22 20 23 1 1 1 -17
2 -39z m1159 8 c21 -40 31 -152 15 -162 -6 -4 -11 -3 -11 3 0 6 -23 9 -62 6
-35 -3 -94 -8 -133 -11 -38 -2 -140 -9 -224 -14 l-155 -10 -43 26 c-24 13 -43
29 -43 35 0 6 5 7 11 3 7 -4 10 7 7 37 l-3 44 55 7 c64 9 377 39 465 45 33 3
64 9 70 14 17 17 34 9 51 -23z m-4213 -12 c9 0 17 -5 17 -11 0 -5 4 -4 8 3 6
8 9 2 9 -18 0 -16 -4 -30 -9 -30 -4 0 -8 7 -8 15 0 8 -4 16 -10 16 -5 1 -14 2
-19 3 -5 0 -13 4 -17 9 -4 4 -16 7 -26 7 -10 0 -18 5 -18 10 0 6 11 8 28 3 15
-4 35 -7 45 -7z m-1323 -6 c-20 -13 -50 -13 -50 0 0 6 15 10 33 10 24 0 28 -3
17 -10z m-367 -27 c-7 -2 -19 -2 -25 0 -7 3 -2 5 12 5 14 0 19 -2 13 -5z m60
0 c-7 -2 -21 -2 -30 0 -10 3 -4 5 12 5 17 0 24 -2 18 -5z m-135 -10 c-16 -2
-40 -2 -55 0 -16 2 -3 4 27 4 30 0 43 -2 28 -4z m3509 -45 c-2 -13 -4 -5 -4
17 -1 22 1 32 4 23 2 -10 2 -28 0 -40z m1573 30 c40 -44 40 -100 -1 -125 -26
-16 -28 -15 -60 22 -46 51 -53 73 -34 101 20 31 67 32 95 2z m-5255 -4 c-38
-7 -79 -14 -89 -16 -10 -2 -21 2 -23 9 -5 13 33 20 122 20 l60 0 -70 -13z
m3815 -56 c0 -64 34 -221 72 -336 83 -251 201 -440 386 -620 211 -205 425
-324 682 -379 174 -37 416 -32 595 13 17 4 17 3 4 -5 -9 -6 -70 -20 -135 -32
-201 -36 -435 -15 -634 56 -347 125 -650 401 -825 750 -79 157 -116 271 -144
434 -23 138 -27 185 -11 161 5 -8 10 -27 10 -42z m868 -23 c18 -27 31 -56 30
-64 -7 -34 -70 -48 -288 -65 -334 -26 -354 -28 -339 -36 8 -4 97 1 199 11 240
23 250 23 250 2 0 -13 3 -14 12 -5 18 18 85 15 119 -5 33 -20 59 -67 51 -95
-2 -10 -32 -37 -65 -59 -58 -37 -70 -54 -17 -24 29 17 50 19 50 5 0 -5 -33
-56 -73 -112 -180 -252 -250 -343 -265 -343 -19 0 -142 143 -142 165 0 25 11
34 125 99 121 70 235 141 235 147 0 4 -99 -47 -169 -86 -15 -9 -50 -32 -77
-51 -54 -40 -76 -50 -115 -56 -22 -3 -31 3 -50 34 -13 20 -22 47 -21 60 1 15
-4 23 -13 23 -14 0 -19 12 -16 33 0 4 -5 7 -13 7 -15 0 -45 65 -70 152 -23 81
-22 88 17 89 17 0 25 3 17 6 -47 17 -58 50 -44 134 6 36 7 37 63 42 72 6 293
26 396 36 44 4 102 7 130 7 48 -1 51 -2 83 -51z m-2726 25 l33 -20 -31 0 c-37
0 -98 23 -87 33 12 13 53 7 85 -13z m1735 -22 c-3 -8 -6 -5 -6 6 -1 11 2 17 5
13 3 -3 4 -12 1 -19z m2790 -15 c-3 -10 -5 -4 -5 12 0 17 2 24 5 18 2 -7 2
-21 0 -30z m-7857 -7 c0 -9 -30 -14 -35 -6 -4 6 3 10 14 10 12 0 21 -2 21 -4z
m-160 -16 c0 -6 -26 -9 -62 -8 l-63 1 60 7 c33 4 61 7 63 8 1 1 2 -2 2 -8z
m83 3 c-13 -2 -35 -2 -50 0 -16 2 -5 4 22 4 28 0 40 -2 28 -4z m3212 -13 c3
-5 -1 -10 -9 -10 -9 0 -16 5 -16 10 0 6 4 10 9 10 6 0 13 -4 16 -10z m-3438
-6 c-3 -3 -12 -4 -19 -1 -8 3 -5 6 6 6 11 1 17 -2 13 -5z m7073 -14 c0 -5 -4
-10 -10 -10 -5 0 -10 5 -10 10 0 6 5 10 10 10 6 0 10 -4 10 -10z m-4000 -27
c-34 -13 -40 -18 -26 -23 10 -3 -84 -21 -210 -39 -282 -41 -305 -45 -377 -66
-38 -10 -63 -13 -70 -6 -8 6 -39 4 -87 -4 -41 -7 -100 -16 -130 -19 -173 -19
-193 -23 -185 -37 4 -5 12 -9 18 -8 32 4 40 -1 27 -16 -19 -23 -54 -15 -58 13
-3 19 -8 23 -25 18 -12 -2 -74 -12 -137 -21 -119 -16 -243 -34 -416 -60 -140
-21 -206 -19 -254 5 -36 18 -68 55 -57 66 2 3 25 -5 51 -16 53 -22 139 -26
227 -10 30 5 153 23 274 40 121 16 396 55 610 86 215 30 428 60 475 65 47 5
130 16 185 24 195 29 229 30 165 8z m108 -10 c-10 -2 -26 -2 -35 0 -10 3 -2 5
17 5 19 0 27 -2 18 -5z m-2181 -38 c-6 -19 -14 -35 -19 -35 -11 0 -10 13 2 44
15 40 30 32 17 -9z m4420 -52 c-3 -10 -5 -4 -5 12 0 17 2 24 5 18 2 -7 2 -21
0 -30z m-4847 -2 c0 -4 -123 -67 -272 -141 -150 -73 -290 -142 -311 -152 l-37
-19 -11 28 c-6 16 -20 68 -30 117 -16 73 -18 92 -7 102 7 6 53 15 102 18 134
9 318 26 342 31 11 2 52 7 90 11 38 4 70 8 72 9 7 6 62 3 62 -4z m4864 -43 c3
-13 6 -31 6 -41 0 -14 -3 -15 -13 -5 -8 7 -12 21 -9 31 3 11 -1 23 -9 28 -11
7 -11 9 2 9 9 0 19 -10 23 -22z m-3115 -47 c-15 -5 -22 6 -14 19 6 9 10 9 16
-1 5 -8 4 -15 -2 -18z m4207 -8 c30 -25 45 -58 37 -80 -4 -10 -25 -40 -48 -68
-22 -27 -51 -68 -65 -90 -13 -22 -35 -51 -47 -65 -13 -14 -23 -28 -23 -33 0
-4 -26 -43 -57 -86 -67 -90 -76 -104 -103 -149 l-20 -33 -29 17 c-16 10 -45
32 -65 50 -39 36 -39 51 -1 94 35 39 155 209 155 219 0 5 4 11 8 13 5 2 39 46
76 98 37 52 81 107 98 122 33 28 40 28 84 -9z m-4356 17 c0 -5 -10 -10 -22
-10 -19 0 -20 2 -8 10 19 13 30 13 30 0z m295 -10 c4 -6 -6 -10 -22 -9 -25 0
-26 1 -8 9 11 5 21 9 22 9 1 1 5 -3 8 -9z m4519 -5 c-4 -8 -10 -15 -15 -15 -4
0 -6 7 -3 15 4 8 10 15 15 15 4 0 6 -7 3 -15z m-4601 -12 c-13 -2 -33 -2 -45
0 -13 2 -3 4 22 4 25 0 35 -2 23 -4z m-1948 -22 c3 -5 1 -12 -5 -16 -5 -3 -10
1 -10 9 0 18 6 21 15 7z m5049 -94 c128 -280 215 -419 361 -581 52 -57 109
-114 127 -127 18 -13 42 -32 53 -43 11 -12 41 -32 68 -46 26 -14 47 -28 47
-32 0 -5 7 -8 15 -8 9 0 62 -22 118 -49 157 -75 195 -91 216 -91 10 0 36 -6
57 -14 22 -7 72 -19 112 -26 40 -8 76 -18 79 -23 4 -6 -4 -8 -18 -4 -13 3 -51
9 -84 13 -33 3 -105 22 -160 41 -55 19 -109 37 -120 40 -24 8 -214 99 -235
114 -8 5 -27 15 -42 22 -16 6 -28 15 -28 20 0 4 -9 11 -19 15 -59 22 -325 309
-382 412 -8 14 -19 32 -25 40 -18 24 -138 266 -139 280 0 3 -5 12 -10 20 -5 8
-15 29 -21 47 -17 47 7 32 30 -20z m-3707 37 c-3 -3 -12 -4 -19 -1 -8 3 -5 6
6 6 11 1 17 -2 13 -5z m68 -14 c10 -8 126 -45 230 -76 85 -24 93 -34 71 -81
-23 -49 -96 -163 -105 -163 -3 0 -15 7 -25 15 -10 8 -22 12 -27 10 -4 -3 -11
0 -15 6 -5 8 -3 9 7 4 8 -5 3 4 -10 18 -14 15 -29 27 -35 27 -5 0 -1 -7 10
-15 10 -8 15 -14 9 -15 -11 0 -75 57 -75 67 0 3 8 -1 18 -10 10 -10 22 -17 25
-17 4 0 -10 16 -32 35 -21 19 -44 35 -50 35 -7 0 -9 5 -6 10 3 6 2 10 -4 10
-15 0 -24 -42 -19 -95 3 -40 1 -45 -17 -45 -12 0 -26 5 -33 12 -9 9 -12 9 -12
0 0 -7 -10 -12 -23 -12 -31 0 -47 18 -47 53 0 39 15 64 51 82 18 10 29 23 27
32 -4 22 -28 29 -28 9 0 -10 -9 -16 -25 -16 -29 0 -33 24 -10 57 8 12 12 28 9
36 -4 12 5 17 40 22 26 4 49 11 51 16 6 8 31 3 50 -11z m72 14 c-3 -3 -12 -4
-19 -1 -8 3 -5 6 6 6 11 1 17 -2 13 -5z m-1277 -30 c0 -7 -126 -149 -240 -269
-41 -44 -100 -108 -132 -142 -33 -37 -64 -63 -76 -63 -21 0 -142 150 -142 176
0 8 105 66 258 143 141 71 271 136 287 145 32 17 45 20 45 10z m6015 -14 c48
-18 59 -37 56 -97 -2 -39 2 -58 13 -66 16 -13 45 -163 71 -367 9 -69 18 -140
22 -159 l6 -34 -92 6 c-108 7 -125 16 -117 67 4 24 3 30 -4 20 -5 -8 -10 -22
-10 -31 0 -23 -25 -31 -58 -17 -15 6 -33 12 -41 14 -27 5 -66 41 -69 63 -2 13
22 142 53 288 48 225 61 270 83 294 27 31 45 35 87 19z m227 -37 c12 -10 18
-30 18 -57 0 -23 7 -75 16 -116 8 -41 19 -109 24 -150 5 -41 20 -124 33 -185
13 -60 21 -117 19 -126 -4 -17 -62 -39 -104 -39 -34 0 -45 16 -52 75 -10 97
-46 321 -67 425 -23 116 -23 114 -21 152 2 29 14 35 76 37 24 1 47 -5 58 -16z
m-5252 -182 c91 -79 187 -164 215 -188 41 -36 48 -46 39 -61 -15 -23 -185
-152 -201 -152 -8 0 -18 12 -24 27 -9 25 -104 234 -200 442 -39 83 -42 114
-11 89 9 -7 91 -78 182 -157z m4890 143 c0 -14 -7 -52 -15 -83 -24 -93 -85
-391 -85 -415 0 -12 -7 -31 -14 -42 -15 -18 -17 -18 -88 20 -84 45 -128 74
-128 85 0 5 186 276 217 316 5 6 28 40 53 77 25 38 48 68 53 68 4 0 7 -12 7
-26z m418 -16 c6 -13 27 -50 46 -83 20 -33 54 -94 77 -135 23 -41 71 -125 105
-187 35 -61 64 -116 64 -121 0 -11 -65 -52 -90 -57 -8 -2 -36 -9 -62 -16 -26
-7 -50 -10 -54 -6 -7 7 -17 56 -69 367 -19 113 -38 217 -41 233 -7 33 8 36 24
5z m-6192 -188 c-52 -151 -164 -431 -177 -445 -17 -17 -208 88 -208 115 -1 8
38 58 86 110 236 260 338 368 341 357 1 -7 -18 -68 -42 -137z m280 -216 l7
-312 -22 -12 c-17 -8 -44 -9 -109 -1 -48 6 -91 11 -97 11 -41 1 -37 17 75 316
61 164 113 305 116 313 16 46 24 -38 30 -315z m272 184 c22 -57 70 -168 106
-248 36 -80 66 -152 66 -161 0 -20 -126 -70 -181 -72 l-34 -2 -6 125 c-6 102
-12 423 -10 453 3 27 23 -7 59 -95z m757 3 c10 -17 -12 -21 -25 -6 -10 12 -10
15 3 15 9 0 18 -4 22 -9z m-1833 -184 c3 -6 4 -15 2 -22 -5 -12 67 -95 83 -95
15 0 24 -28 12 -36 -6 -3 -8 -17 -4 -31 4 -18 2 -24 -7 -21 -7 3 -14 17 -16
32 -2 14 -9 26 -15 25 -28 -3 -38 2 -47 26 -6 16 -14 23 -25 19 -11 -5 -14 -2
-8 12 4 11 3 15 -5 10 -14 -9 -49 29 -55 60 -3 19 -1 24 10 19 11 -3 13 -1 10
10 -5 11 0 13 26 8 18 -3 35 -11 39 -16z m-242 -47 c0 -5 -2 -10 -4 -10 -3 0
-8 5 -11 10 -3 6 -1 10 4 10 6 0 11 -4 11 -10z m72 -82 c3 -7 13 -13 23 -13
24 0 31 -21 10 -29 -16 -6 -42 17 -66 57 -9 16 -8 17 9 8 11 -6 22 -16 24 -23z
m163 2 c3 -5 1 -10 -4 -10 -6 0 -11 5 -11 10 0 6 2 10 4 10 3 0 8 -4 11 -10z
m7410 -48 c-47 -43 -201 -142 -222 -142 -4 0 40 31 97 69 58 38 114 78 124 90
11 12 22 19 25 16 3 -3 -8 -18 -24 -33z m-7399 7 c4 -8 -1 -9 -17 -4 l-24 7
23 -17 c23 -17 30 -45 11 -45 -6 0 -9 -10 -7 -22 3 -20 9 -23 40 -21 21 1 40
-3 43 -8 9 -13 21 -11 39 7 15 14 16 14 16 -5 0 -12 5 -21 10 -21 6 0 10 5 10
11 0 6 7 9 15 6 8 -4 17 -2 21 4 3 6 -4 13 -16 16 -18 5 -20 10 -14 37 8 41
11 43 36 27 11 -7 17 -8 14 -3 -3 6 38 -11 91 -37 54 -26 123 -55 154 -64 53
-16 238 -49 287 -51 12 -1 22 -4 22 -7 0 -3 19 -5 43 -4 107 6 193 26 209 49
4 6 14 6 30 -1 13 -5 39 -9 58 -7 102 11 143 12 131 5 -7 -5 -12 -10 -11 -12
3 -9 -16 -47 -47 -90 -18 -26 -33 -51 -33 -57 0 -26 69 -29 154 -7 33 9 60 14
62 12 4 -3 -134 -49 -201 -67 -166 -45 -491 -50 -650 -11 -114 28 -258 82
-318 121 -26 17 -50 30 -52 30 -8 0 -101 64 -125 86 -14 13 -47 44 -74 68 -34
31 -47 49 -42 61 6 17 33 15 29 -2 -1 -5 7 -9 18 -9 12 0 19 7 19 18 0 20 34
25 46 7z m-126 -19 c0 -5 -2 -10 -4 -10 -3 0 -8 5 -11 10 -3 6 -1 10 4 10 6 0
11 -4 11 -10z m263 -17 c-7 -3 -14 -14 -14 -26 -1 -18 -2 -19 -6 -4 -5 19 16
52 26 41 3 -4 0 -9 -6 -11z m7027 -121 c0 -7 -117 -52 -135 -52 -10 1 113 57
128 59 4 1 7 -2 7 -7z m-605 -222 c3 -5 2 -10 -4 -10 -5 0 -13 5 -16 10 -3 6
-2 10 4 10 5 0 13 -4 16 -10z m45 0 c0 -5 -5 -10 -11 -10 -5 0 -7 5 -4 10 3 6
8 10 11 10 2 0 4 -4 4 -10z m50 -10 c0 -5 -9 -10 -20 -10 -11 0 -20 5 -20 10
0 6 9 10 20 10 11 0 20 -4 20 -10z"/>
<path d="M5257 7903 c-10 -9 -9 -23 2 -23 5 0 11 7 15 15 5 15 -5 20 -17 8z"/>
<path d="M5590 7404 c0 -8 92 -45 98 -40 3 3 -7 10 -22 16 -14 5 -37 14 -51
20 -14 5 -25 7 -25 4z"/>
<path d="M5808 7403 c7 -3 16 -2 19 1 4 3 -2 6 -13 5 -11 0 -14 -3 -6 -6z"/>
<path d="M5810 7386 c0 -2 7 -6 15 -10 8 -3 15 -1 15 4 0 6 -7 10 -15 10 -8 0
-15 -2 -15 -4z"/>
<path d="M5725 7350 c3 -5 14 -10 24 -10 9 0 22 -5 29 -12 9 -9 12 -9 12 -1 0
14 -7 18 -43 27 -19 4 -26 3 -22 -4z"/>
<path d="M4910 7324 c0 -8 5 -12 10 -9 6 3 10 10 10 16 0 5 -4 9 -10 9 -5 0
-10 -7 -10 -16z"/>
<path d="M4864 7315 c21 -16 32 -13 21 4 -3 6 -14 11 -23 11 -15 -1 -15 -2 2
-15z"/>
<path d="M6670 7360 c-12 -8 -12 -10 3 -16 21 -8 35 2 21 16 -5 5 -15 6 -24 0z"/>
<path d="M3714 5309 c21 -11 40 -18 43 -15 6 6 -51 36 -69 36 -7 0 5 -9 26
-21z"/>
<path d="M7921 3983 c7 -12 15 -20 18 -17 3 2 -3 12 -13 22 -17 16 -18 16 -5
-5z"/>
<path d="M7975 3900 c3 -5 8 -10 11 -10 2 0 4 5 4 10 0 6 -5 10 -11 10 -5 0
-7 -4 -4 -10z"/>
<path d="M9238 2893 c7 -3 16 -2 19 1 4 3 -2 6 -13 5 -11 0 -14 -3 -6 -6z"/>
<path d="M9281 2880 c21 -12 172 -60 176 -56 2 2 -35 17 -83 35 -84 30 -125
40 -93 21z"/>
<path d="M9090 2814 c0 -14 41 -57 48 -49 3 3 -6 18 -21 33 -15 14 -27 22 -27
16z"/>
<path d="M8935 2700 c10 -11 22 -20 27 -20 15 0 9 28 -8 34 -30 11 -37 6 -19
-14z"/>
<path d="M9220 2703 c0 -15 31 -46 38 -38 3 3 -4 15 -16 28 -12 12 -22 16 -22
10z"/>
<path d="M9015 2641 c-3 -5 -1 -12 5 -16 5 -3 10 1 10 9 0 18 -6 21 -15 7z"/>
<path d="M9320 2607 c0 -8 7 -17 15 -21 8 -3 15 -2 15 3 0 5 -7 14 -15 21 -12
10 -15 10 -15 -3z"/>
<path d="M9721 2584 c0 -11 3 -14 6 -6 3 7 2 16 -1 19 -3 4 -6 -2 -5 -13z"/>
<path d="M9110 2567 c0 -8 7 -20 15 -27 12 -10 15 -10 15 3 0 8 -7 20 -15 27
-12 10 -15 10 -15 -3z"/>
<path d="M9714 2543 c4 -7 3 -13 -3 -13 -6 0 -8 -7 -4 -16 5 -15 7 -15 16 1 6
12 5 21 -3 28 -10 9 -11 9 -6 0z"/>
<path d="M9054 2345 c-6 -15 2 -35 14 -35 18 1 32 18 26 33 -8 21 -33 22 -40
2z"/>
<path d="M1982 3923 c-8 -15 -9 -24 -1 -28 15 -10 21 0 17 27 l-3 23 -13 -22z"/>
<path d="M9166 3654 c-4 -11 -1 -14 11 -12 9 2 18 9 21 16 6 18 -25 15 -32 -4z"/>
<path d="M7510 3450 c8 -5 20 -10 25 -10 6 0 3 5 -5 10 -8 5 -19 10 -25 10 -5
0 -3 -5 5 -10z"/>
<path d="M7677 3399 c7 -7 15 -10 18 -7 3 3 -2 9 -12 12 -14 6 -15 5 -6 -5z"/>
<path d="M7739 3375 c37 -17 60 -20 46 -6 -6 5 -26 12 -45 15 l-35 7 34 -16z"/>
<path d="M8440 3030 c0 -5 5 -10 11 -10 5 0 7 5 4 10 -3 6 -8 10 -11 10 -2 0
-4 -4 -4 -10z"/>
<path d="M8070 3021 c0 -5 7 -11 15 -15 8 -3 15 -12 15 -21 0 -8 5 -15 10 -15
15 0 12 15 -9 38 -19 23 -31 28 -31 13z"/>
<path d="M3482 2638 c-17 -17 -15 -48 3 -48 10 0 15 10 15 30 0 34 -1 35 -18
18z"/>
<path d="M8411 2484 c0 -11 3 -14 6 -6 3 7 2 16 -1 19 -3 4 -6 -2 -5 -13z"/>
<path d="M8381 2324 c0 -11 3 -14 6 -6 3 7 2 16 -1 19 -3 4 -6 -2 -5 -13z"/>
<path d="M1986 2185 c-3 -8 -1 -15 4 -15 6 0 10 7 10 15 0 8 -2 15 -4 15 -2 0
-6 -7 -10 -15z"/>
<path d="M1910 2080 c0 -5 7 -10 16 -10 8 0 12 5 9 10 -3 6 -10 10 -16 10 -5
0 -9 -4 -9 -10z"/>
<path d="M2180 2006 c0 -22 17 -28 24 -10 9 22 8 24 -9 24 -8 0 -15 -6 -15
-14z"/>
<path d="M2119 1984 c-6 -8 -8 -14 -3 -15 5 0 0 -4 -11 -9 -18 -8 -17 -9 8 -9
15 -1 27 -5 27 -10 0 -12 27 -22 44 -15 8 3 16 14 19 24 3 13 1 17 -10 13 -9
-3 -16 2 -19 14 -6 23 -38 27 -55 7z"/>
<path d="M2280 1975 c0 -8 -8 -15 -17 -15 -13 0 -14 -3 -6 -11 9 -9 16 -8 28
5 9 9 21 16 26 16 6 0 7 5 4 10 -10 15 -35 12 -35 -5z"/>
<path d="M8210 8176 c0 -2 7 -6 15 -10 8 -3 15 -1 15 4 0 6 -7 10 -15 10 -8 0
-15 -2 -15 -4z"/>
<path d="M7753 7870 c-13 -5 -23 -12 -23 -15 0 -9 16 -5 36 10 22 16 19 18
-13 5z"/>
<path d="M7590 7690 c0 -5 5 -10 10 -10 6 0 10 5 10 10 0 6 -4 10 -10 10 -5 0
-10 -4 -10 -10z"/>
<path d="M8080 7672 c0 -17 5 -53 12 -81 10 -46 14 -51 38 -51 l27 0 -27 77
c-29 82 -50 105 -50 55z m17 -14 c-3 -7 -5 -2 -5 12 0 14 2 19 5 13 2 -7 2
-19 0 -25z m23 -53 c0 -5 -5 -3 -10 5 -5 8 -10 20 -10 25 0 6 5 3 10 -5 5 -8
10 -19 10 -25z"/>
<path d="M6500 7620 c0 -5 5 -10 10 -10 6 0 10 5 10 10 0 6 -4 10 -10 10 -5 0
-10 -4 -10 -10z"/>
<path d="M5308 6833 c6 -2 18 -2 25 0 6 3 1 5 -13 5 -14 0 -19 -2 -12 -5z"/>
<path d="M6364 5326 c-11 -11 -31 -28 -43 -36 -43 -28 -51 -41 -50 -83 1 -39
2 -40 8 -12 12 48 28 72 66 95 19 12 40 30 45 41 14 25 0 23 -26 -5z"/>
<path d="M6172 5331 c-9 -5 -12 -26 -10 -64 2 -43 6 -55 16 -48 9 5 12 26 10
64 -2 43 -6 55 -16 48z"/>
<path d="M6058 5233 c-23 -25 -24 -73 -3 -73 20 0 27 20 23 60 -3 32 -3 32
-20 13z"/>
<path d="M6172 5178 c-18 -18 -16 -78 3 -78 11 0 15 12 15 45 0 49 -1 50 -18
33z"/>
<path d="M4982 3938 c-17 -17 -15 -48 3 -48 10 0 15 10 15 30 0 34 -1 35 -18
18z"/>
<path d="M5460 3578 c0 -4 -6 -8 -14 -8 -15 0 -42 -28 -34 -35 5 -6 119 32
130 43 4 4 -13 7 -38 8 -24 0 -44 -3 -44 -8z"/>
<path d="M0 445 l0 -445 6500 0 6500 0 0 445 0 445 -6500 0 -6500 0 0 -445z
m780 55 l0 -200 -35 0 -35 0 0 193 c0 107 3 197 7 200 3 4 19 7 35 7 l28 0 0
-200z m-115 105 c24 -23 25 -30 25 -149 0 -68 3 -131 6 -140 5 -13 -1 -16 -30
-16 -27 0 -36 4 -36 17 0 14 -2 15 -17 1 -31 -27 -58 -30 -84 -9 -20 16 -24
29 -24 69 0 57 18 83 76 113 43 21 56 47 35 67 -17 17 -36 8 -36 -19 0 -15 -7
-19 -35 -19 -32 0 -35 2 -35 30 0 46 39 80 90 80 30 0 47 -6 65 -25z m304 1
c13 -14 17 -43 19 -161 l3 -145 -29 0 c-17 0 -32 5 -34 10 -2 7 -16 5 -37 -6
-31 -16 -34 -15 -59 3 -19 14 -28 31 -30 58 -5 55 12 86 69 123 39 25 50 38
47 55 -4 29 -30 28 -43 0 -7 -17 -18 -23 -44 -23 -32 0 -33 1 -27 33 3 17 18
43 33 56 22 19 34 22 71 18 24 -3 51 -12 61 -21z m131 9 c17 21 57 19 72 -4
12 -19 12 -19 36 0 30 23 55 24 76 3 13 -13 16 -42 16 -165 l0 -149 -30 0
c-34 0 -32 -6 -30 136 1 92 -6 134 -25 134 -21 0 -25 -25 -25 -151 l0 -119
-35 0 -34 0 -3 133 c-3 109 -6 132 -18 132 -12 0 -15 -23 -18 -132 l-3 -133
-34 0 -35 0 0 159 0 160 28 3 c15 2 32 -2 38 -9 9 -11 14 -10 24 2z m292 -124
c3 -118 4 -126 23 -126 19 0 20 8 23 128 l3 127 34 0 35 0 0 -184 c0 -170 -1
-185 -21 -210 -18 -23 -27 -26 -85 -26 l-64 0 0 29 c0 28 2 30 48 33 43 3 47
5 50 30 3 27 3 27 -24 14 -33 -18 -64 -8 -81 25 -12 23 -19 280 -8 291 3 2 18
3 35 0 l29 -4 3 -127z m9933 89 c0 -27 -4 -50 -10 -50 -5 0 -10 23 -10 50 0
28 5 50 10 50 6 0 10 -22 10 -50z m470 0 c0 -27 -4 -50 -10 -50 -5 0 -10 23
-10 50 0 28 5 50 10 50 6 0 10 -22 10 -50z m93 38 c7 -7 12 -24 12 -38 0 -34
-17 -50 -52 -50 -27 0 -28 2 -28 50 0 48 1 50 28 50 15 0 33 -5 40 -12z m177
-38 c0 -43 -1 -45 -32 -48 l-33 -3 0 51 0 51 33 -3 c31 -3 32 -5 32 -48z m63
-2 c-1 -51 -2 -51 -5 -10 -2 23 -9 42 -14 42 -6 0 -7 5 -4 10 15 24 25 6 23
-42z m102 44 c0 -15 -41 -94 -46 -89 -3 3 2 19 10 36 21 40 20 49 -6 54 -17 3
-14 5 10 6 17 0 32 -3 32 -7z m72 -26 c2 -19 1 -43 -3 -53 -7 -16 -8 -16 -8
-1 -1 10 -11 18 -26 20 l-25 3 22 32 c13 18 26 33 29 33 4 0 9 -15 11 -34z
m84 25 c-37 -8 -55 -34 -40 -58 16 -27 54 -29 54 -5 0 11 -6 23 -12 25 -8 3
-6 6 5 6 12 1 17 -7 17 -29 0 -26 -4 -30 -28 -30 -35 0 -52 16 -52 52 0 30 22
48 60 47 23 -1 23 -2 -4 -8z m82 -43 c-1 -51 -2 -51 -5 -10 -2 23 -9 42 -14
42 -6 0 -7 5 -4 10 15 24 25 6 23 -42z m-1011 -13 l1 -40 -6 35 c-4 22 -13 35
-22 35 -9 0 -17 -13 -21 -35 l-6 -35 -2 32 c-1 30 -16 51 -28 40 -3 -4 -9 -21
-13 -39 l-8 -33 -1 41 -1 41 53 -1 52 -1 2 -40z m81 4 c3 -34 1 -36 -25 -35
-37 1 -39 37 -3 47 l25 6 -25 12 -25 11 25 -3 c21 -2 25 -8 28 -38z m80 -16
c-3 -54 -5 -58 -28 -60 -25 -3 -25 -3 -2 7 12 5 22 15 22 23 0 8 -10 13 -22
13 -17 -1 -24 5 -26 22 -5 36 5 52 33 52 25 0 26 -2 23 -57z m90 35 c3 -14 -3
-18 -23 -18 -33 0 -29 -22 6 -31 22 -6 22 -7 3 -8 -30 -1 -48 23 -40 55 5 19
12 25 29 22 12 -2 23 -11 25 -20z m232 12 c0 -5 -4 -10 -10 -10 -5 0 -10 5
-10 10 0 6 5 10 10 10 6 0 10 -4 10 -10z m0 -60 c0 -5 -4 -10 -10 -10 -5 0
-10 5 -10 10 0 6 5 10 10 10 6 0 10 -4 10 -10z m-180 -190 c0 -47 -3 -60 -15
-60 -12 0 -15 13 -15 60 0 47 3 60 15 60 12 0 15 -13 15 -60z m-580 10 c0 -11
5 -20 10 -20 6 0 10 9 10 20 0 30 27 24 38 -7 l10 -28 7 28 c4 15 11 27 16 27
11 0 11 -7 -2 -52 -12 -47 -34 -49 -44 -5 l-8 32 -6 -30 c-10 -48 -36 -43 -48
10 -8 36 -8 45 3 45 8 0 14 -9 14 -20z m140 0 c0 -11 5 -20 10 -20 6 0 10 9
10 21 0 29 32 21 41 -11 l6 -25 8 28 c7 28 25 38 25 13 0 -27 -22 -76 -35 -76
-7 0 -16 15 -20 33 l-7 32 -9 -32 c-13 -46 -34 -41 -46 12 -8 36 -8 45 3 45 8
0 14 -9 14 -20z m140 0 c0 -11 5 -20 10 -20 6 0 10 9 10 21 0 29 32 21 41 -11
l6 -25 8 28 c7 28 25 38 25 13 0 -27 -22 -76 -35 -76 -7 0 -16 15 -20 33 l-8
32 -6 -30 c-10 -48 -36 -43 -48 10 -8 36 -8 45 3 45 8 0 14 -9 14 -20z m238
-25 c3 -40 2 -41 -30 -40 -28 0 -33 4 -33 25 0 17 7 26 25 31 24 7 24 7 3 8
-13 1 -23 6 -23 12 0 6 12 9 28 7 24 -3 27 -8 30 -43z m150 0 c3 -40 2 -41
-30 -40 -28 0 -33 4 -33 25 0 17 7 26 25 31 24 7 24 7 3 8 -13 1 -23 6 -23 12
0 6 12 9 28 7 24 -3 27 -8 30 -43z m159 32 c3 -5 7 -25 9 -43 2 -24 -2 -34
-12 -34 -9 0 -14 12 -14 36 0 45 -24 42 -28 -4 -2 -18 -7 -32 -12 -32 -5 0
-10 14 -12 32 -4 46 -28 49 -28 4 0 -25 -4 -36 -15 -36 -11 0 -15 12 -15 44
l0 43 60 0 c33 0 63 -4 67 -10z m60 -19 l10 -33 7 33 c4 18 14 32 22 32 11 0
13 -6 8 -22 -19 -61 -45 -108 -59 -108 -18 0 -20 17 -3 22 10 4 9 16 -4 56
-12 40 -13 52 -4 52 7 0 17 -15 23 -32z m173 23 c0 -5 -9 -11 -20 -14 -11 -3
-20 -13 -20 -22 0 -9 9 -19 20 -22 23 -6 27 -23 6 -23 -31 0 -46 13 -46 39 0
15 5 32 12 39 14 14 48 16 48 3z m90 -5 c28 -35 -11 -93 -47 -70 -36 22 -23
84 17 84 10 0 23 -7 30 -14z m156 2 c4 -6 8 -25 10 -44 2 -25 -1 -34 -12 -34
-9 0 -14 11 -14 36 0 45 -24 42 -28 -4 -2 -18 -7 -32 -12 -32 -5 0 -10 14 -12
32 -4 46 -28 49 -28 4 0 -25 -4 -36 -15 -36 -11 0 -15 12 -15 44 l0 43 60 0
c33 0 63 -4 66 -9z m-885 -71 c-13 -13 -26 -3 -16 12 3 6 11 8 17 5 6 -4 6
-10 -1 -17z m550 0 c-13 -13 -26 -3 -16 12 3 6 11 8 17 5 6 -4 6 -10 -1 -17z"/>
<path d="M592 427 c-26 -27 -28 -55 -6 -64 22 -8 38 12 39 52 2 41 -4 43 -33
12z"/>
<path d="M887 432 c-10 -10 -17 -31 -17 -46 0 -23 4 -27 23 -24 18 2 23 10 25
46 3 46 -6 52 -31 24z"/>
<path d="M11840 580 c0 -33 3 -41 16 -38 26 5 41 35 28 56 -6 9 -19 18 -28 20
-13 3 -16 -5 -16 -38z"/>
<path d="M12020 605 c0 -10 7 -15 18 -13 21 4 19 22 -2 26 -10 2 -16 -3 -16
-13z"/>
<path d="M12020 560 c0 -15 5 -20 18 -18 9 2 17 10 17 18 0 8 -8 16 -17 18
-13 2 -18 -3 -18 -18z"/>
<path d="M12272 598 c-16 -16 -15 -28 3 -28 8 0 15 9 15 20 0 23 -2 24 -18 8z"/>
<path d="M11490 555 c0 -8 6 -15 14 -15 8 0 16 7 20 15 4 10 -1 15 -14 15 -11
0 -20 -7 -20 -15z"/>
<path d="M11574 586 c-8 -22 3 -49 19 -43 6 2 12 14 12 27 0 27 -22 39 -31 16z"/>
<path d="M11665 590 c-3 -5 3 -10 15 -10 12 0 18 5 15 10 -3 6 -10 10 -15 10
-5 0 -12 -4 -15 -10z"/>
<path d="M11657 333 c-12 -11 -8 -23 8 -23 8 0 15 7 15 15 0 16 -12 20 -23 8z"/>
<path d="M11807 333 c-12 -11 -8 -23 8 -23 8 0 15 7 15 15 0 16 -12 20 -23 8z"/>
<path d="M12283 344 c-8 -21 13 -42 28 -27 13 13 5 43 -11 43 -6 0 -13 -7 -17
-16z"/>
</g>
</svg>
