<?xml version="1.0" encoding="UTF-8" standalone="no"?>
<svg
   display="block"
   height="41px"
   width="27px"
   viewBox="0 0 27 41"
   version="1.1"
   id="svg3"
   sodipodi:docname="marker-24.svg"
   inkscape:version="1.3.2 (091e20e, 2023-11-25, custom)"
   xmlns:inkscape="http://www.inkscape.org/namespaces/inkscape"
   xmlns:sodipodi="http://sodipodi.sourceforge.net/DTD/sodipodi-0.dtd"
   xmlns="http://www.w3.org/2000/svg"
   xmlns:svg="http://www.w3.org/2000/svg">
  <sodipodi:namedview
     id="namedview3"
     pagecolor="#ffffff"
     bordercolor="#000000"
     borderopacity="0.25"
     inkscape:showpageshadow="2"
     inkscape:pageopacity="0.0"
     inkscape:pagecheckerboard="0"
     inkscape:deskcolor="#d1d1d1"
     inkscape:zoom="29.682927"
     inkscape:cx="13.509449"
     inkscape:cy="20.5"
     inkscape:window-width="2560"
     inkscape:window-height="1494"
     inkscape:window-x="-11"
     inkscape:window-y="-11"
     inkscape:window-maximized="1"
     inkscape:current-layer="svg3" />
  <defs
     id="defs2">
    <radialGradient
       id="shadowGradient">
      <stop
         offset="10%"
         stop-opacity="0.4"
         id="stop1" />
      <stop
         offset="100%"
         stop-opacity="0.05"
         id="stop2" />
    </radialGradient>
  </defs>
  <ellipse
     cx="13.5"
     cy="34.8"
     rx="10.5"
     ry="5.25"
     fill="url(#shadowGradient)"
     id="ellipse2" />
  <path
     fill="#3FB1CE"
     d="M27,13.5C27,19.07 20.25,27 14.75,34.5C14.02,35.5 12.98,35.5 12.25,34.5C6.75,27 0,19.22 0,13.5C0,6.04 6.04,0 13.5,0C20.96,0 27,6.04 27,13.5Z"
     id="path2" />
  <path
     opacity="0.25"
     d="M13.5,0C6.04,0 0,6.04 0,13.5C0,19.22 6.75,27 12.25,34.5C13,35.52 14.02,35.5 14.75,34.5C20.25,27 27,19.07 27,13.5C27,6.04 20.96,0 13.5,0ZM13.5,1C20.42,1 26,6.58 26,13.5C26,15.9 24.5,19.18 22.22,22.74C19.95,26.3 16.71,30.14 13.94,33.91C13.74,34.18 13.61,34.32 13.5,34.44C13.39,34.32 13.26,34.18 13.06,33.91C10.28,30.13 7.41,26.31 5.02,22.77C2.62,19.23 1,15.95 1,13.5C1,6.58 6.58,1 13.5,1Z"
     id="path3" />
  <circle
     fill="#ffffff"
     cx="13.5"
     cy="13.5"
     r="5.5"
     id="circle3" />
  <text
     xml:space="preserve"
     style="fill:#000000;font-size:10.66666667px"
     x="12.869351"
     y="16.204601"
     id="text3"><tspan
       sodipodi:role="line"
       id="tspan3"
       x="12.869351"
       y="16.204601" /></text>
  <text
     xml:space="preserve"
     style="font-size:9.33333333px;fill:#000000"
     x="11.555464"
     y="16.204601"
     id="text4"><tspan
       sodipodi:role="line"
       id="tspan4"
       x="11.555464"
       y="16.204601" /></text>
  <text
     xml:space="preserve"
     style="font-style:normal;font-variant:normal;font-weight:normal;font-stretch:normal;font-size:9.33333px;font-family:'Microsoft Sans Serif';-inkscape-font-specification:'Microsoft Sans Serif';text-align:center;text-anchor:middle;fill:#000000"
     x="13.363281"
     y="16.904295"
     id="text5"><tspan
       sodipodi:role="line"
       id="tspan5"
       x="13.363281"
       y="16.904295"
       style="font-style:normal;font-variant:normal;font-weight:normal;font-stretch:normal;font-family:Tahoma;-inkscape-font-specification:Tahoma;text-align:center;text-anchor:middle">24</tspan></text>
</svg>
